<svg xmlns="http://www.w3.org/2000/svg" width="160" height="135" fill="none"><g clip-path="url(#a)"><mask id="b" fill="#fff"><path d="m101.624 7.285.028-.088c.492-1.48 2.197-3.862 1.587-5.526-1.115-.759-4.602 2.158-5.317 3.045-3.819 4.736-7.306 9.77-10.674 14.837-.998 1.5-3.007 3.004-3.566 4.774-.163.124-2.325 2.01-2.416 2.142-2.001 2.918-4.364 5.45-6.486 8.268-1.12 1.47-1.978 3.082-3.171 4.43l.108-.21c-2.01 2.465-2.662 3.895-4.141 6.645-1.22 2.002-2.5 3.96-3.662 5.995-.181.317-.362.643-.564.947-2.103 1.315-4.467 2.701-6.563 4.009-1.329.83-2.052 2.559-3.81 3.549-.432.009-.832.03-1.261-.028-2.152-.636-4.151-1.604-6.272-2.302-10.474-3.45-18.627-3.215-27.707 3.418-.8.408-3.717 3.112-4.138 3.874-.88.858-1.122 1.38-1.378 2.631l-.113.111c-.696-.419-2.26.117-3.276.171-1.523-.035-3.359.114-4.853.44-.603.088-1.627.184-2.14.439l-.04.205c.622.508 2.221 1.47 3.057 1.476.958.244 5.254 1.462 5.897 1.46.437.233.922.431 1.166.853.06.559.098.342-.123.832-1.72.602-2.622.79-4.47.84-.583.015-2.02-.032-2.494.102l-.062.16c1.815 1.522 6.699 1.39 7.25 1.784.309 1.002.566 2.165.914 3.122 1.552 4.266 3.45 8.344 5.457 12.407.708 1.435 1.12 3.28 1.78 4.752 2.015 4.636 4.391 10.029 7.392 14.095 1.243 1.686 4.245 3.728 5.869 5.28.395.378 1.365 1.117 1.671 1.484.757.724 1.493 1.504 2.443 1.96 1.584.762 3.348 1.745 5.025 2.218l.477.207c.623.396 1.288.722 1.983.972 1.023.369 2.226.582 3.3.856 1.173.299 2.89 1.11 4.04 1.181 5.601 1.735 15.06 1.446 21.027.913 1.549-.138 4.276-1.13 5.772-1.251.596.025.779.029 1.362-.073.167-.363.578-.365.93-.446l.308-.053.41-.253.402-.248c.767-.417 2.68-.822 3.61-1.185 1.152-.448 2.09-.977 3.173-1.558.575-.089.604-.185 1.075-.002l.172.244.082-.098c1.006-1.179 1.911-1.603 3.352-2.094.152-.13.608-.769.756-.967.88-.637 2.052-1.269 2.85-1.978 3.108-2.762 6.209-5.6 8.326-9.231.421-.723.842-2.878 1.404-3.307.344.434-.173.58.004 1.081 3.315-1.911 7.772-2.958 11.098-5.054 2.096-1.32 4.049-2.642 6.02-4.147 1.113-.85 2.609-2.276 3.809-2.89 1.227-.36 3.3-.18 5.413-.772l2.231-.502c3.088-.088 11.96-1.87 14.924-2.937l.067-.016c.928-.046 2.575-.65 3.489-.973.468-.662.879-.823 1.537-1.303l.214-.068c.939-.271 1.841-.237 2.672-.704-1.131-.39-6.559-.506-7.945-.531-.594-.108-1.73-.124-2.359-.146-1.053-.037-2.868-.662-3.786-.614-4.573.237-9.088-.026-13.653.074-2.659-.178-5.063.256-8.189-.105-1.869-.663-5.212-.415-7.306-.378-2.137.072-8.15-1.21-10.306-1.894-.286-.224-.459-.31-.574-.65.115-.372.599-.637.941-.878.847-.328 1.277-.516 2.073-.951.562-.387 2.632-3.285 2.879-3.976.125-.471.986-1.494 1.343-2.114l.109-.108c.708-1.01 2.402-1.05 3.332-2.68.387-.422.824-.847 1.23-1.255.841-.776 1.016-.814 1.75-1.768.556-.812 1.377-1.309 1.887-2.227.587-.873.762-1.407.969-2.398.22-.58-.014-1.857.149-2.934.551-2.164.268-3.2-.373-5.27l-.014-.623c.149-.577.271-1.16.365-1.748.318-1.993.201-3.51-1.008-5.185l.077-.675c.848-1.807.943-3.72-.13-5.448l-.346-.367c.784-1.336 1.006-3.94.581-5.426-.196-.466-.156-1-.155-1.51.646-1.851.488-2.477-.092-4.296l-.626-.975.087-.303c.141-.559.287-1.032.464-1.582.281-.662.555-1.327.821-1.996.146-.185.626-1.565.74-1.875.35-1.053.665-1.444.812-2.582l.504-1.44c.788-1.475.912-1.245.944-2.931-.075-1.66.457-1.828 1.098-3.263.029-.023.263-.352.301-.404.729-1.157.806-1.698 1.04-2.997l-.237-.396c-.428-.11-.326-.068-.802.085-1.055.407-1.667.85-2.617 1.46-1.07.446-2.4 2.177-3.308 2.062-.455-.62.107-1.758.027-2.711-.42-.227-.605.344-.981.26-.619-.14-.169-1.138-.497-1.556l-.161.144c-2.584.403-5.331 3.728-7.032 5.268-.552.293-1.121.797-1.6.801l-.073-.158c-.017-.54.087-.68.344-1.163.567-.53 2.614-3.633 2.954-4.429.392-.914.654-1.312.317-2.24-.854-.29-1.1-.214-1.337-1.067 1.394-2.963.865-4.064-2.531-2.687-2.43.985-4.508 3.722-6.38 5.499-.489.25-.544.38-1.016.353-.146-.43-.041-.525.06-1.041Zm4.059 72.823c-.342.24-.826.506-.941.877.115.34.288.427.574.651 2.156.684 8.169 1.966 10.306 1.894 2.094-.037 5.437-.285 7.306.378 3.126.361 5.53-.073 8.189.105 4.565-.1 9.08.163 13.653-.075.918-.047 2.733.578 3.786.615.629.022 1.765.038 2.359.146 1.386.025 6.814.14 7.945.531-.831.467-1.733.433-2.672.704l-.214.068c-.658.48-1.069.641-1.537 1.303-.914.324-2.561.927-3.489.973l-.067.016c-2.964 1.067-11.836 2.849-14.924 2.937l-2.231.502c-2.113.593-4.186.411-5.413.773-.034-.054-.148-.214-.226-.222-1.957-.191-4.111.256-5.938-.692-.594-.309-1.644.079-2.301.208l-.485-.216c-1.244.105-2.689.261-3.922.279l.187.319c-.587.104-2.214.481-2.718.237-.311-.15-.432-1.269-.582-1.641-.499-1.236-2.196-2.32-3.361-2.844l-.342-1.644c-1.433-1.603-3.163-2.947-4.604-4.525l-.031-.57c-.396-.274-1.599 0-2.102-.266l-.082-.588c-.392-.426-1.371-.54-1.983-.663l.302-.248c1.326.237 1.433.175 2.459 1.036 1.416.076 1.73.126 3.099-.358Z"/></mask><path fill="#C1BC4A" d="m101.624 7.285.028-.088c.492-1.48 2.197-3.862 1.587-5.526-1.115-.759-4.602 2.158-5.317 3.045-3.819 4.736-7.306 9.77-10.674 14.837-.998 1.5-3.007 3.004-3.566 4.774-.163.124-2.325 2.01-2.416 2.142-2.001 2.918-4.364 5.45-6.486 8.268-1.12 1.47-1.978 3.082-3.171 4.43l.108-.21c-2.01 2.465-2.662 3.895-4.141 6.645-1.22 2.002-2.5 3.96-3.662 5.995-.181.317-.362.643-.564.947-2.103 1.315-4.467 2.701-6.563 4.009-1.329.83-2.052 2.559-3.81 3.549-.432.009-.832.03-1.261-.028-2.152-.636-4.151-1.604-6.272-2.302-10.474-3.45-18.627-3.215-27.707 3.418-.8.408-3.717 3.112-4.138 3.874-.88.858-1.122 1.38-1.378 2.631l-.113.111c-.696-.419-2.26.117-3.276.171-1.523-.035-3.359.114-4.853.44-.603.088-1.627.184-2.14.439l-.04.205c.622.508 2.221 1.47 3.057 1.476.958.244 5.254 1.462 5.897 1.46.437.233.922.431 1.166.853.06.559.098.342-.123.832-1.72.602-2.622.79-4.47.84-.583.015-2.02-.032-2.494.102l-.062.16c1.815 1.522 6.699 1.39 7.25 1.784.309 1.002.566 2.165.914 3.122 1.552 4.266 3.45 8.344 5.457 12.407.708 1.435 1.12 3.28 1.78 4.752 2.015 4.636 4.391 10.029 7.392 14.095 1.243 1.686 4.245 3.728 5.869 5.28.395.378 1.365 1.117 1.671 1.484.757.724 1.493 1.504 2.443 1.96 1.584.762 3.348 1.745 5.025 2.218l.477.207c.623.396 1.288.722 1.983.972 1.023.369 2.226.582 3.3.856 1.173.299 2.89 1.11 4.04 1.181 5.601 1.735 15.06 1.446 21.027.913 1.549-.138 4.276-1.13 5.772-1.251.596.025.779.029 1.362-.073.167-.363.578-.365.93-.446l.308-.053.41-.253.402-.248c.767-.417 2.68-.822 3.61-1.185 1.152-.448 2.09-.977 3.173-1.558.575-.089.604-.185 1.075-.002l.172.244.082-.098c1.006-1.179 1.911-1.603 3.352-2.094.152-.13.608-.769.756-.967.88-.637 2.052-1.269 2.85-1.978 3.108-2.762 6.209-5.6 8.326-9.231.421-.723.842-2.878 1.404-3.307.344.434-.173.58.004 1.081 3.315-1.911 7.772-2.958 11.098-5.054 2.096-1.32 4.049-2.642 6.02-4.147 1.113-.85 2.609-2.276 3.809-2.89 1.227-.36 3.3-.18 5.413-.772l2.231-.502c3.088-.088 11.96-1.87 14.924-2.937l.067-.016c.928-.046 2.575-.65 3.489-.973.468-.662.879-.823 1.537-1.303l.214-.068c.939-.271 1.841-.237 2.672-.704-1.131-.39-6.559-.506-7.945-.531-.594-.108-1.73-.124-2.359-.146-1.053-.037-2.868-.662-3.786-.614-4.573.237-9.088-.026-13.653.074-2.659-.178-5.063.256-8.189-.105-1.869-.663-5.212-.415-7.306-.378-2.137.072-8.15-1.21-10.306-1.894-.286-.224-.459-.31-.574-.65.115-.372.599-.637.941-.878.847-.328 1.277-.516 2.073-.951.562-.387 2.632-3.285 2.879-3.976.125-.471.986-1.494 1.343-2.114l.109-.108c.708-1.01 2.402-1.05 3.332-2.68.387-.422.824-.847 1.23-1.255.841-.776 1.016-.814 1.75-1.768.556-.812 1.377-1.309 1.887-2.227.587-.873.762-1.407.969-2.398.22-.58-.014-1.857.149-2.934.551-2.164.268-3.2-.373-5.27l-.014-.623c.149-.577.271-1.16.365-1.748.318-1.993.201-3.51-1.008-5.185l.077-.675c.848-1.807.943-3.72-.13-5.448l-.346-.367c.784-1.336 1.006-3.94.581-5.426-.196-.466-.156-1-.155-1.51.646-1.851.488-2.477-.092-4.296l-.626-.975.087-.303c.141-.559.287-1.032.464-1.582.281-.662.555-1.327.821-1.996.146-.185.626-1.565.74-1.875.35-1.053.665-1.444.812-2.582l.504-1.44c.788-1.475.912-1.245.944-2.931-.075-1.66.457-1.828 1.098-3.263.029-.023.263-.352.301-.404.729-1.157.806-1.698 1.04-2.997l-.237-.396c-.428-.11-.326-.068-.802.085-1.055.407-1.667.85-2.617 1.46-1.07.446-2.4 2.177-3.308 2.062-.455-.62.107-1.758.027-2.711-.42-.227-.605.344-.981.26-.619-.14-.169-1.138-.497-1.556l-.161.144c-2.584.403-5.331 3.728-7.032 5.268-.552.293-1.121.797-1.6.801l-.073-.158c-.017-.54.087-.68.344-1.163.567-.53 2.614-3.633 2.954-4.429.392-.914.654-1.312.317-2.24-.854-.29-1.1-.214-1.337-1.067 1.394-2.963.865-4.064-2.531-2.687-2.43.985-4.508 3.722-6.38 5.499-.489.25-.544.38-1.016.353-.146-.43-.041-.525.06-1.041Zm4.059 72.823c-.342.24-.826.506-.941.877.115.34.288.427.574.651 2.156.684 8.169 1.966 10.306 1.894 2.094-.037 5.437-.285 7.306.378 3.126.361 5.53-.073 8.189.105 4.565-.1 9.08.163 13.653-.075.918-.047 2.733.578 3.786.615.629.022 1.765.038 2.359.146 1.386.025 6.814.14 7.945.531-.831.467-1.733.433-2.672.704l-.214.068c-.658.48-1.069.641-1.537 1.303-.914.324-2.561.927-3.489.973l-.067.016c-2.964 1.067-11.836 2.849-14.924 2.937l-2.231.502c-2.113.593-4.186.411-5.413.773-.034-.054-.148-.214-.226-.222-1.957-.191-4.111.256-5.938-.692-.594-.309-1.644.079-2.301.208l-.485-.216c-1.244.105-2.689.261-3.922.279l.187.319c-.587.104-2.214.481-2.718.237-.311-.15-.432-1.269-.582-1.641-.499-1.236-2.196-2.32-3.361-2.844l-.342-1.644c-1.433-1.603-3.163-2.947-4.604-4.525l-.031-.57c-.396-.274-1.599 0-2.102-.266l-.082-.588c-.392-.426-1.371-.54-1.983-.663l.302-.248c1.326.237 1.433.175 2.459 1.036 1.416.076 1.73.126 3.099-.358Z"/><path fill="#000" d="m133.726 91.733-.041-.145.008-.002.033.147Zm2.231-.502-.033-.146.014-.003h.014l.005.15Zm14.924-2.937-.051-.141.009-.004.009-.002.033.147Zm.067-.016-.033-.146.013-.003h.012l.008.15Zm3.489-.973.123.086-.028.04-.045.015-.05-.141Zm1.537-1.303-.088-.121.02-.015.023-.007.045.143Zm.214-.068-.045-.143.004-.001.041.144Zm2.672-.704.049-.142.315.11-.291.163-.073-.13Zm-7.945-.531-.002.15h-.013l-.012-.003.027-.147Zm-2.359-.146-.005.15.005-.15Zm-3.786-.614-.008-.15.008.15Zm-13.653.074.003.15h-.013l.01-.15Zm-8.189-.105-.017.149-.017-.002-.016-.006.05-.141Zm-7.306-.378-.005-.15h.002l.003.15Zm-10.306-1.894-.046.144-.026-.009-.021-.017.093-.118Zm-.574-.65-.142.047-.016-.046.015-.046.143.044Zm23.571 11.52-.043-.144c.633-.186 1.48-.232 2.405-.305.935-.074 1.969-.177 3.01-.469l.041.145.04.144c-1.071.3-2.13.405-3.067.479-.946.075-1.75.119-2.344.294l-.042-.144Zm5.413-.773-.033-.147 2.231-.5.033.145.032.147-2.23.5-.033-.145Zm2.231-.502-.005-.15c1.531-.044 4.509-.509 7.484-1.099 2.975-.59 5.924-1.3 7.394-1.83l.051.142.051.14c-1.494.538-4.462 1.252-7.437 1.842-2.974.59-5.976 1.06-7.534 1.105l-.004-.15Zm14.924-2.937-.033-.147.067-.015.033.146.033.147-.067.015-.033-.146Zm.067-.016-.008-.15c.444-.021 1.072-.178 1.713-.376.639-.195 1.275-.426 1.734-.589l.05.142.05.141c-.456.162-1.1.395-1.746.593-.642.198-1.301.365-1.786.39l-.007-.15Zm3.489-.973-.122-.087c.486-.688.935-.873 1.571-1.338l.088.122.089.12c-.68.498-1.055.635-1.503 1.27l-.123-.087Zm1.537-1.303-.045-.143.214-.068.045.143.046.143-.214.068-.046-.143Zm.214-.068-.041-.144c.478-.138.954-.2 1.39-.282.442-.083.856-.187 1.249-.408l.074.13.073.131c-.437.246-.889.358-1.341.442-.457.086-.902.142-1.362.275l-.042-.144Zm2.672-.704-.049.142c-.263-.09-.797-.17-1.489-.237a51.871 51.871 0 0 0-2.346-.158 142.46 142.46 0 0 0-4.063-.128l.002-.15.003-.15c.693.012 2.399.047 4.072.128.837.04 1.668.093 2.36.16.687.065 1.256.147 1.559.251l-.049.142Zm-7.945-.531-.027.147c-.58-.105-1.699-.121-2.337-.143l.005-.15.005-.15c.619.021 1.773.037 2.381.148l-.027.148Zm-2.359-.146-.005.15c-.544-.02-1.278-.19-1.971-.343-.708-.156-1.368-.294-1.802-.272l-.008-.15-.008-.15c.484-.025 1.191.126 1.883.28.707.156 1.407.317 1.916.335l-.005.15Zm-3.786-.614.008.15c-2.292.118-4.568.112-6.839.088-2.273-.023-4.539-.064-6.819-.014l-.003-.15-.003-.15c2.285-.05 4.559-.01 6.828.014 2.271.024 4.539.03 6.82-.088l.008.15Zm-13.653.074-.01.15c-1.321-.089-2.577-.025-3.905.016-1.325.041-2.717.06-4.291-.122l.017-.15.018-.148c1.551.18 2.925.161 4.247.12 1.32-.04 2.595-.105 3.934-.016l-.01.15Zm-8.189-.105-.05.141c-.909-.323-2.191-.427-3.52-.443-1.329-.016-2.678.055-3.733.074l-.003-.15-.003-.15c1.04-.019 2.409-.09 3.742-.074 1.333.016 2.657.12 3.618.46l-.051.142Zm-7.306-.378.005.15c-1.088.036-3.142-.27-5.18-.666-2.042-.398-4.091-.89-5.177-1.234l.046-.144.045-.142c1.07.339 3.106.829 5.144 1.225 2.042.397 4.063.696 5.112.661l.005.15Zm-10.306-1.894-.093.118c-.271-.213-.491-.329-.623-.72l.142-.049.142-.048c.097.288.224.345.524.582l-.092.117Zm-.574-.65-.143-.045c.071-.23.251-.413.435-.56.182-.146.404-.284.562-.396l.087.123.086.122c-.183.13-.373.245-.548.385-.172.138-.292.274-.336.415l-.143-.045Zm-3.118-73.701-.294-.058.003-.017.006-.017.285.092Zm.028-.088-.285-.092.001-.002.284.094Zm1.587-5.526.169-.249.079.055.034.09-.282.104Zm-5.317 3.045-.233-.188.233.188ZM87.248 19.553l-.25-.166.25.166Zm-3.566 4.774.286.09-.028.09-.076.058-.182-.238Zm-2.416 2.142-.248-.17.248.17Zm-6.486 8.268.24.18-.001.002-.239-.182Zm-3.171 4.43.225.2-.492-.337.267.137Zm.108-.21-.232-.19.499.328-.267-.138Zm-4.141 6.645.264.142-.004.008-.004.006-.256-.156Zm-3.662 5.995-.26-.148.26.148Zm-.564.947.25.166-.037.054-.054.034-.16-.255Zm-6.563 4.009-.158-.255.158.255Zm-3.81 3.549.148.26-.066.038-.075.001-.006-.3Zm-1.261-.028-.04.298-.023-.003-.022-.007.085-.288Zm-6.272-2.302.094-.285-.094.285ZM17.737 61.19l.177.242-.02.014-.02.011-.137-.267Zm-4.138 3.874.262.145-.021.04-.032.03-.21-.215Zm-1.378 2.631.294.06-.018.09-.065.064-.21-.214Zm-.113.111.211.214-.166.164-.2-.12.155-.258Zm-3.276.171.016.3h-.023l.007-.3Zm-4.853.44.064.294-.01.002-.01.001-.044-.296Zm-2.14.439-.294-.058.028-.145.133-.066.133.269Zm-.04.205-.19.233-.14-.114.035-.177.295.058Zm3.057 1.476.002-.3h.036l.036.009-.074.29Zm5.897 1.46v-.3h.075l.067.035-.142.265Zm1.166.853.26-.15.032.054.006.064-.298.032Zm-.123.832.273.123-.053.117-.12.043-.1-.284Zm-4.47.84-.008-.3.008.3Zm-2.494.102-.28-.108.054-.14.145-.041.081.289Zm-.062.16-.193.23-.164-.138.077-.2.28.108Zm7.25 1.784.175-.245.083.06.03.097-.287.088Zm.914 3.122-.282.103.282-.103Zm5.457 12.407.269-.133-.27.133Zm1.78 4.752.274-.123.001.004-.275.119Zm7.392 14.095.241-.178-.241.178Zm5.869 5.28-.208.217.208-.217Zm1.671 1.484-.207.217-.012-.012-.01-.013.23-.192Zm2.443 1.96-.13.27.13-.27Zm5.025 2.218.081-.289.02.005.018.008-.12.276Zm.477.207.12-.275.022.009.02.013-.162.253Zm1.983.972.101-.282-.101.282Zm3.3.856.075-.291-.074.291Zm4.04 1.181.019-.299.036.002.034.011-.089.286Zm21.027.913-.026-.299.026.299Zm5.772-1.251-.025-.299.019-.001h.018l-.013.3Zm1.362-.073.272.126-.066.142-.154.028-.052-.296Zm.93-.446-.067-.292.008-.002.009-.002.05.296Zm.308-.053.158.255-.05.031-.057.01-.05-.296Zm.41-.253-.159-.255.158.255Zm.402-.248-.157-.256.007-.004.007-.004.143.264Zm3.61-1.185.11.28-.11-.28Zm3.173-1.558-.142-.264.045-.024.05-.008.047.296Zm1.075-.002.108-.28.084.033.053.074-.245.173Zm.172.244.23.192-.25.299-.225-.318.245-.173Zm.082-.098-.23-.192.002-.003.228.195Zm3.352-2.094.196.228-.044.038-.055.018-.097-.284Zm.756-.967-.24-.179.027-.037.037-.027.176.243Zm2.85-1.978.2.224-.2-.224Zm8.326-9.231.259.151-.259-.151Zm1.404-3.307-.182-.238.234-.179.183.231-.235.186Zm.004 1.081.15.26-.313.18-.12-.34.283-.1Zm11.098-5.054-.16-.254.16.254Zm6.02-4.147-.182-.239.182.239Zm3.809-2.89.254-.158.173.277-.291.15-.136-.268Zm-22.63-12.397.108.28-.008.002-.1-.282Zm2.073-.951.17.247-.012.008-.014.008-.144-.263Zm2.879-3.976.29.077-.004.012-.004.012-.282-.101Zm1.343-2.114-.26-.15.02-.035.029-.028.211.213Zm.109-.108.246.172-.015.022-.02.02-.211-.214Zm3.332-2.68-.261-.148.017-.03.022-.025.222.203Zm1.23-1.255-.212-.212.009-.008.203.22Zm1.75-1.768.248.169-.005.007-.005.006-.238-.182Zm1.887-2.227-.262-.146.006-.011.007-.01.249.167Zm.969-2.398-.293-.061.004-.023.009-.022.28.106Zm.149-2.934-.296-.045.002-.015.004-.014.29.074Zm-.373-5.27-.287.089-.012-.04-.001-.042.3-.007Zm-.014-.623-.3.006-.001-.041.01-.04.291.075Zm.365-1.748.296.047-.296-.047Zm-1.008-5.185-.243.176-.069-.094.014-.116.298.034Zm.077-.675-.298-.035.006-.049.02-.044.272.128Zm-.13-5.448.219-.206.02.022.016.025-.255.159Zm-.346-.367-.218.206-.155-.164.114-.194.259.152Zm.581-5.426.277-.116.007.016.005.018-.289.082Zm-.155-1.51h-.3v-.05l.017-.049.283.1Zm-.092-4.296.252-.162.021.033.012.038-.285.09Zm-.626-.975-.252.162-.074-.114.038-.13.288.082Zm.087-.303.291.074-.002.01-.289-.084Zm.464-1.582-.286-.092.005-.012.005-.013.276.117Zm.821-1.996-.279-.11.016-.041.027-.035.236.186Zm.74-1.875.285.094-.003.01-.282-.104Zm.812-2.582-.297-.039.004-.031.01-.03.283.1Zm.504-1.44-.283-.1.008-.021.011-.02.264.14Zm.944-2.931.3-.014v.02l-.3-.006Zm1.098-3.263-.274-.122.03-.066.056-.046.188.234Zm.301-.404.254.16-.005.008-.006.008-.243-.176Zm1.04-2.997.258-.155.058.097-.02.111-.296-.053Zm-.237-.396.074-.29.119.03.064.105-.257.155Zm-.802.085-.108-.28.008-.003.009-.003.091.286Zm-2.617 1.46.162.252-.022.014-.025.01-.115-.277Zm-3.308 2.062-.038.298-.127-.017-.077-.103.242-.178Zm.027-2.711.143-.264.142.077.013.162-.298.025Zm-.981.26.066-.293-.066.292Zm-.497-1.556-.199-.224.239-.211.196.25-.236.185Zm-.161.144.199.224-.066.058-.087.014-.046-.296Zm-7.032 5.268.201.223-.028.025-.033.017-.14-.265Zm-1.6.801.003.3-.193.002-.082-.175.272-.127Zm-.073-.158-.272.127-.026-.056-.002-.062.3-.009Zm.344-1.163-.265-.14.023-.045.037-.034.205.22Zm2.954-4.429-.276-.118.276.118Zm.317-2.24.096-.285.136.047.05.135-.282.103Zm-1.337-1.067-.289.08-.03-.107.047-.1.272.127Zm-2.531-2.687-.113-.278.113.278Zm-6.38 5.499.206.217-.031.03-.038.02-.137-.267Zm-1.016.353-.017.3-.202-.011-.065-.192.284-.097Zm26.523 83.958.029-.298-.029.298Zm-5.938-.692-.138.266.138-.266Zm-2.301.208.058.294-.093.019-.087-.039.122-.274Zm-.485-.216-.025-.299.077-.006.07.031-.122.274Zm-3.922.279-.259.151-.26-.444.515-.007.004.3Zm.187.319.259-.151.217.371-.424.075-.052-.295Zm-2.718.237.13-.27-.13.27Zm-.582-1.641.278-.112-.278.112Zm-3.361-2.844-.123.274-.139-.063-.031-.15.293-.06Zm-.342-1.644.224-.2.054.06.016.079-.294.061Zm-4.604-4.525-.221.203-.073-.08-.005-.106.299-.017Zm-.031-.57.171-.246.121.084.008.147-.3.015Zm-2.102-.266-.141.265-.135-.072-.021-.152.297-.041Zm-.082-.588.221-.203.063.069.013.093-.297.04Zm-1.983-.663-.06.294-.618-.124.487-.401.191.231Zm.302-.248-.19-.232.106-.088.137.024-.053.296Zm2.459 1.036-.016.3-.1-.006-.077-.064.193-.23Zm-.96-73.18-.285-.093.028-.088.285.092.286.093-.029.087-.285-.092Zm.028-.089-.284-.094c.129-.391.337-.835.555-1.29.221-.461.457-.94.659-1.425.411-.988.637-1.9.375-2.614l.282-.103.282-.104c.348.952.027 2.062-.385 3.051-.21.504-.455 1.001-.672 1.455-.221.46-.411.87-.527 1.219l-.285-.095Zm1.587-5.526-.169.248c-.07-.048-.176-.08-.337-.072a2.052 2.052 0 0 0-.592.137c-.461.168-1 .474-1.542.84-1.086.736-2.11 1.668-2.443 2.08l-.234-.188-.233-.188c.383-.475 1.459-1.445 2.574-2.2.559-.379 1.145-.715 1.673-.908.264-.097.526-.162.771-.172.245-.011.492.032.701.174l-.169.249Zm-5.317 3.045.234.188c-3.81 4.725-7.292 9.751-10.659 14.815l-.25-.166-.25-.166c3.37-5.069 6.864-10.113 10.692-14.86l.233.19ZM87.248 19.553l.25.166c-.514.773-1.295 1.555-1.973 2.319-.696.783-1.298 1.56-1.557 2.379l-.286-.09-.286-.09c.3-.952.983-1.812 1.68-2.598.716-.806 1.439-1.526 1.922-2.252l.25.166Zm-3.566 4.774.182.238c-.07.054-.641.547-1.219 1.055-.286.251-.568.502-.785.698a17.662 17.662 0 0 0-.34.317c-.025.025-.019.021-.007.003l-.247-.17-.248-.169a.727.727 0 0 1 .075-.086l.09-.087c.07-.067.165-.154.274-.253.22-.198.505-.451.792-.704a61.449 61.449 0 0 1 1.251-1.08l.182.238Zm-2.416 2.142.247.17c-1.008 1.47-2.106 2.84-3.213 4.191-1.109 1.354-2.224 2.684-3.28 4.087l-.24-.18-.24-.18c1.066-1.416 2.193-2.76 3.296-4.107 1.106-1.35 2.19-2.703 3.183-4.151l.247.17Zm-6.486 8.268.239.182c-.553.725-1.04 1.484-1.548 2.245-.504.757-1.026 1.511-1.637 2.202l-.225-.199-.225-.199c.582-.658 1.085-1.383 1.588-2.137.5-.75 1.002-1.531 1.57-2.276l.239.182Zm-3.171 4.43-.267-.137.109-.21.266.137.267.138-.108.21-.267-.138Zm.108-.21.233.19c-1.989 2.438-2.627 3.84-4.11 6.597l-.264-.142-.264-.142c1.475-2.743 2.14-4.2 4.173-6.693l.232.19Zm-4.141 6.645.256.156c-1.227 2.014-2.498 3.956-3.657 5.988l-.261-.149-.26-.149c1.163-2.039 2.453-4.012 3.666-6.002l.256.156Zm-3.662 5.995.26.149c-.178.312-.365.65-.575.964l-.25-.166-.249-.167c.195-.292.37-.606.553-.928l.261.148Zm-.564.947.159.254a242.72 242.72 0 0 1-3.288 2.01c-1.116.675-2.23 1.347-3.275 1.999l-.159-.255-.158-.254c1.05-.655 2.166-1.33 3.282-2.004 1.116-.674 2.23-1.348 3.28-2.005l.159.255Zm-6.563 4.009.16.254c-.617.385-1.096.98-1.676 1.655-.57.663-1.218 1.378-2.146 1.9l-.147-.26-.148-.262c.83-.467 1.421-1.111 1.985-1.768.553-.644 1.1-1.329 1.814-1.774l.158.255Zm-3.81 3.549.007.3c-.42.008-.85.032-1.308-.03l.04-.298.04-.297c.4.054.77.034 1.215.024l.007.3Zm-1.261-.028-.085.288c-1.09-.322-2.139-.728-3.173-1.137-1.037-.41-2.057-.822-3.108-1.169l.094-.284.094-.285c1.07.352 2.11.773 3.14 1.18 1.035.409 2.061.806 3.123 1.12l-.085.287Zm-6.272-2.302-.094.285c-5.215-1.718-9.827-2.51-14.252-2.06-4.42.451-8.68 2.144-13.184 5.435l-.177-.242-.177-.242c4.575-3.343 8.933-5.084 13.477-5.547 4.54-.463 9.242.353 14.501 2.086l-.094.285ZM17.737 61.19l.136.267c-.167.085-.475.31-.87.635-.387.318-.835.714-1.272 1.122a26.82 26.82 0 0 0-1.202 1.186c-.348.37-.583.657-.668.81l-.262-.146-.263-.145c.126-.228.414-.566.756-.93.351-.373.785-.8 1.23-1.214.444-.415.902-.819 1.3-1.146.39-.322.746-.587.978-.706l.137.267Zm-4.138 3.874.209.215c-.428.418-.684.737-.865 1.09-.183.357-.301.768-.428 1.386l-.294-.06-.294-.06c.13-.633.26-1.108.482-1.54.223-.434.528-.805.98-1.246l.21.215Zm-1.378 2.631.21.214-.112.11-.21-.213-.212-.213.113-.112.211.214Zm-.113.111-.155.257c-.11-.066-.279-.107-.516-.115a4.765 4.765 0 0 0-.803.063c-.298.044-.6.101-.909.154a7.874 7.874 0 0 1-.877.112l-.016-.3-.015-.3c.235-.012.508-.053.808-.104.293-.05.615-.11.922-.155.308-.046.621-.078.908-.07.283.01.57.058.808.201l-.155.257Zm-3.276.171-.007.3c-1.503-.035-3.314.113-4.782.434l-.064-.293-.064-.294c1.52-.332 3.38-.483 4.924-.447l-.007.3Zm-4.853.44.043.297c-.316.046-.704.09-1.097.156-.395.066-.74.149-.953.255l-.133-.27-.133-.268c.3-.149.723-.242 1.12-.309.398-.067.823-.116 1.11-.157l.043.297Zm-2.14.439.294.058-.04.205-.294-.058-.295-.058.04-.205.295.058Zm-.04.205.19-.232c.292.238.83.595 1.397.893.283.148.568.278.828.37.265.095.484.144.644.145l-.002.3-.002.3c-.258-.002-.552-.076-.842-.18a7.267 7.267 0 0 1-.904-.404 9.774 9.774 0 0 1-1.499-.96l.19-.232Zm3.057 1.476.074-.291c.477.122 1.805.49 3.069.823.636.167 1.26.326 1.764.443.252.058.472.106.646.138.183.034.295.047.343.047l.001.3.001.3c-.112 0-.275-.024-.454-.057a16.209 16.209 0 0 1-.673-.144 66.673 66.673 0 0 1-1.78-.447c-1.285-.337-2.584-.7-3.065-.822l.074-.29Zm5.897 1.46.142-.265c.198.106.455.228.674.368.227.144.454.33.61.6l-.26.15-.26.15c-.088-.153-.226-.276-.412-.394-.194-.123-.397-.217-.635-.344l.141-.265Zm1.166.853.298-.032c.015.135.027.22.037.29a.836.836 0 0 1 .006.224.75.75 0 0 1-.07.218c-.034.07-.064.13-.12.255l-.274-.124-.273-.123c.054-.12.101-.216.122-.26.025-.055.022-.057.02-.047 0 .006.002.002-.006-.066-.008-.06-.023-.16-.038-.304l.298-.031Zm-.123.832.1.283c-1.747.611-2.68.806-4.562.857l-.008-.3-.008-.3c1.814-.049 2.686-.23 4.379-.824l.099.284Zm-4.47.84.008.3c-.287.007-.821 0-1.292.007-.243.003-.48.01-.682.024a2.51 2.51 0 0 0-.446.06l-.082-.29-.081-.288c.15-.042.355-.066.568-.08.218-.016.467-.023.715-.026.512-.007.989 0 1.284-.007l.008.3Zm-2.494.102.28.108-.062.16-.28-.108-.28-.109.062-.16.28.109Zm-.062.16.193-.23c.407.34 1.005.604 1.711.807.701.202 1.483.338 2.235.44.757.104 1.462.17 2.036.238.283.034.536.068.737.107.101.02.195.042.277.068a.853.853 0 0 1 .236.11l-.174.244-.174.244c.003.003-.013-.008-.069-.026a1.997 1.997 0 0 0-.21-.05 10.062 10.062 0 0 0-.693-.1c-.553-.066-1.286-.136-2.047-.24-.764-.104-1.578-.245-2.32-.458-.737-.213-1.43-.504-1.93-.924l.192-.23Zm7.25 1.784.287-.088c.156.507.3 1.056.445 1.587.146.535.294 1.055.464 1.52l-.282.103-.282.103a20.432 20.432 0 0 1-.48-1.568c-.147-.54-.286-1.074-.438-1.57l.287-.087Zm.914 3.122.282-.102c1.547 4.25 3.44 8.317 5.444 12.376l-.27.133-.268.133c-2.008-4.066-3.912-8.156-5.47-12.437l.282-.103Zm5.457 12.407.269-.133c.365.739.65 1.578.924 2.4.276.83.538 1.643.861 2.362l-.274.123-.273.123c-.338-.754-.612-1.6-.884-2.419-.274-.826-.548-1.627-.892-2.324l.269-.132Zm1.78 4.752.275-.12c2.018 4.642 4.381 10.003 7.358 14.037l-.241.178-.241.178c-3.025-4.098-5.414-9.524-7.426-14.153l.275-.12Zm7.392 14.095.241-.178c.597.809 1.63 1.719 2.742 2.637 1.097.906 2.27 1.818 3.093 2.605l-.207.216-.208.217c-.8-.766-1.94-1.65-3.06-2.575-1.106-.913-2.196-1.867-2.843-2.744l.242-.178Zm5.869 5.28.207-.216c.188.18.517.448.855.733.323.271.666.566.84.775l-.23.192-.23.192c-.133-.159-.429-.416-.766-.7-.323-.272-.677-.561-.883-.759l.207-.217Zm1.671 1.484.208-.217c.775.742 1.47 1.477 2.364 1.907l-.13.27-.13.27c-1.003-.482-1.78-1.306-2.519-2.013l.207-.217Zm2.443 1.96.13-.27c1.61.774 3.333 1.736 4.976 2.199l-.081.289-.081.288c-1.71-.482-3.516-1.486-5.074-2.236l.13-.27Zm5.025 2.218.12-.276.477.208-.12.275-.119.275-.478-.207.12-.275Zm.477.207.161-.253c.605.384 1.25.7 1.923.943l-.101.282-.102.283c-.715-.258-1.4-.594-2.041-1.002l.16-.253Zm1.983.972.101-.282c1.007.363 2.166.565 3.274.847l-.074.291-.075.291c-1.041-.266-2.288-.489-3.328-.864l.102-.283Zm3.3.856.075-.291c.602.154 1.348.44 2.052.684.723.25 1.403.456 1.932.489l-.019.299-.018.3c-.622-.039-1.375-.274-2.091-.521-.736-.255-1.435-.524-2.005-.669l.075-.291Zm4.04 1.181.09-.286c2.759.855 6.49 1.216 10.293 1.293 3.797.078 7.642-.127 10.618-.393l.026.299.027.299c-2.992.267-6.86.474-10.684.395-3.818-.078-7.617-.44-10.458-1.32l.088-.287Zm21.027.913-.026-.299c.743-.066 1.783-.34 2.855-.623 1.052-.277 2.138-.565 2.918-.628l.025.299.024.299c-.715.058-1.74.327-2.814.61-1.051.278-2.15.569-2.955.641l-.026-.299Zm5.772-1.251.012-.3c.584.025.744.029 1.298-.068l.052.295.052.296c-.612.107-.818.102-1.427.077l.013-.3Zm1.362-.073-.272-.126a.91.91 0 0 1 .573-.487 2.33 2.33 0 0 1 .303-.075c.1-.019.178-.032.26-.05l.066.292.067.292c-.095.022-.2.04-.281.055a1.68 1.68 0 0 0-.225.055c-.12.04-.181.089-.219.17l-.272-.126Zm.93-.446-.05-.296.308-.052.05.295.05.296-.307.053-.05-.296Zm.308-.053-.158-.255.41-.253.157.255.158.255-.409.253-.158-.255Zm.41-.253-.158-.255.403-.249.157.256.158.255-.403.248-.158-.255Zm.402-.248-.143-.264c.418-.227 1.124-.441 1.804-.637.702-.202 1.392-.388 1.84-.563l.11.279.109.28c-.483.188-1.215.385-1.893.581-.7.201-1.335.398-1.684.587l-.143-.263Zm3.61-1.185-.108-.279c1.13-.441 2.049-.959 3.139-1.543l.142.264.141.265c-1.076.577-2.033 1.116-3.204 1.573l-.11-.28Zm3.173-1.558-.046-.296c.136-.021.24-.043.33-.061.087-.018.177-.037.266-.045.203-.018.378.021.633.12l-.108.28-.11.279c-.214-.083-.289-.088-.362-.081-.049.004-.103.015-.198.034a7.065 7.065 0 0 1-.36.067l-.045-.297Zm1.075-.002.245-.173.172.244-.245.173-.245.173-.172-.244.245-.173Zm.172.244-.23-.193.082-.097.23.192.23.193-.082.097-.23-.192Zm.082-.098-.228-.195c1.056-1.237 2.019-1.684 3.484-2.183l.096.284.097.284c-1.417.483-2.265.885-3.221 2.005l-.228-.195Zm3.352-2.094-.195-.227a1.53 1.53 0 0 0 .124-.141c.063-.077.136-.172.211-.271.152-.201.296-.401.375-.507l.24.179.242.179c-.069.092-.227.31-.378.511a12.1 12.1 0 0 1-.225.289 1.904 1.904 0 0 1-.198.216l-.196-.228Zm.756-.967-.176-.243c.449-.325.974-.65 1.468-.971.502-.326.978-.65 1.359-.989l.199.225.2.224c-.418.371-.927.717-1.43 1.043-.512.332-1.012.641-1.444.954l-.176-.243Zm2.85-1.978-.2-.225c3.112-2.764 6.178-5.573 8.267-9.157l.259.151.259.151c-2.144 3.678-5.281 6.545-8.386 9.304l-.2-.224Zm8.326-9.231-.259-.151c.089-.152.186-.397.294-.708.107-.31.213-.648.33-.999.114-.343.237-.688.369-.977.126-.276.283-.554.488-.71l.182.238.182.239c-.076.058-.182.21-.306.482a9.795 9.795 0 0 0-.346.918c-.111.331-.225.695-.332 1.005-.108.31-.221.606-.343.814l-.259-.151Zm1.404-3.307.235-.186a.765.765 0 0 1 .186.458.838.838 0 0 1-.08.36c-.069.165-.099.222-.054.349l-.283.1-.283.1c-.132-.374.008-.641.067-.781.031-.074.033-.096.033-.109 0-.002.001-.033-.056-.104l.235-.187Zm.004 1.081-.15-.259c1.681-.97 3.649-1.718 5.585-2.478 1.948-.764 3.868-1.54 5.503-2.571l.16.254.16.254c-1.69 1.065-3.662 1.86-5.604 2.622-1.952.765-3.871 1.496-5.504 2.438l-.15-.26Zm11.098-5.054-.16-.254c2.091-1.317 4.035-2.633 5.998-4.132l.182.239.182.238c-1.98 1.513-3.941 2.839-6.042 4.163l-.16-.254Zm6.02-4.147-.182-.239c.553-.422 1.188-.977 1.865-1.527.663-.54 1.359-1.068 1.989-1.39l.137.267.136.267c-.569.291-1.221.782-1.884 1.321-.649.529-1.319 1.111-1.879 1.54l-.182-.24Zm-18.821-15.287-.108-.28c.837-.324 1.255-.507 2.037-.935l.144.264.144.263c-.81.443-1.253.637-2.109.968l-.108-.28Zm2.073-.951-.17-.248a1.71 1.71 0 0 0 .227-.212c.104-.11.228-.253.364-.418.271-.33.586-.745.893-1.172.307-.425.603-.86.836-1.228.24-.38.398-.663.446-.8l.283.102.282.1c-.074.21-.269.548-.504.919-.241.38-.544.825-.856 1.258-.312.433-.635.859-.917 1.202a8.622 8.622 0 0 1-.391.449 2.21 2.21 0 0 1-.323.295l-.17-.247Zm2.879-3.976-.29-.077a2.15 2.15 0 0 1 .246-.52 9.89 9.89 0 0 1 .383-.577c.284-.404.574-.795.744-1.09l.26.15.26.15c-.188.325-.507.756-.773 1.135a9.95 9.95 0 0 0-.361.542c-.102.169-.16.29-.179.364l-.29-.077Zm1.343-2.114-.211-.213.11-.109.21.214.211.213-.11.109-.21-.214Zm.109-.108-.245-.172c.209-.298.484-.515.774-.697.284-.178.612-.34.911-.502.613-.332 1.208-.716 1.631-1.457l.261.148.26.149c-.507.89-1.224 1.34-1.866 1.688-.329.178-.616.317-.878.482-.255.16-.457.327-.602.533l-.246-.172Zm3.332-2.68-.222-.203c.393-.428.839-.86 1.24-1.263l.212.211.213.212c-.411.413-.841.83-1.222 1.246l-.221-.203Zm1.23-1.255-.203-.22c.861-.795 1.002-.804 1.716-1.731l.237.183.238.182c-.754.982-.964 1.05-1.784 1.806l-.204-.22Zm1.75-1.768-.247-.17c.297-.434.666-.784.995-1.115.336-.339.643-.668.877-1.088l.262.146.262.145c-.276.498-.635.877-.975 1.22-.348.35-.668.653-.926 1.031l-.248-.17Zm1.887-2.227-.249-.167c.559-.833.723-1.328.925-2.292l.293.06.294.062c-.213 1.018-.4 1.59-1.014 2.504l-.249-.167Zm.969-2.398-.28-.106c.038-.101.063-.252.074-.461.01-.206.007-.443.002-.708-.011-.517-.03-1.135.057-1.704l.296.045.297.045c-.077.508-.061 1.068-.05 1.602.005.262.009.52-.003.751a2.2 2.2 0 0 1-.112.642l-.281-.106Zm.149-2.934-.29-.074c.268-1.057.33-1.82.252-2.566-.078-.754-.3-1.502-.622-2.541l.287-.09.287-.088c.319 1.03.559 1.835.645 2.657.086.832.014 1.668-.268 2.776l-.291-.074Zm-.373-5.27-.3.007-.014-.624.3-.006.3-.007.014.623-.3.007Zm-.014-.623-.291-.076a18.62 18.62 0 0 0 .36-1.72l.296.048.296.047c-.095.597-.219 1.19-.371 1.776l-.29-.075Zm.365-1.748-.296-.047c.156-.981.202-1.823.069-2.615-.133-.788-.444-1.544-1.024-2.347l.243-.176.243-.175c.629.87.98 1.71 1.129 2.598.149.883.094 1.797-.068 2.809l-.296-.047Zm-1.008-5.185-.298-.034.077-.676.298.035.298.034-.077.676-.298-.035Zm.077-.675-.272-.128c.816-1.738.894-3.54-.112-5.162l.254-.158.255-.159c1.139 1.835 1.027 3.859.147 5.734l-.272-.127Zm-.13-5.448-.218.206-.346-.367.218-.206.218-.206.347.367-.219.206Zm-.346-.367-.259-.152c.361-.616.606-1.552.705-2.535.098-.98.046-1.962-.153-2.656l.288-.083.289-.082c.226.791.275 1.854.173 2.881-.103 1.025-.361 2.058-.784 2.779l-.259-.152Zm.581-5.426-.276.117c-.227-.538-.18-1.155-.179-1.627h.6c-.001.55-.035 1 .132 1.394l-.277.116Zm-.155-1.51-.283-.099c.317-.91.426-1.486.397-2.046-.029-.57-.199-1.143-.492-2.06l.286-.091.285-.091c.288.902.487 1.55.521 2.212.034.67-.102 1.332-.431 2.274l-.283-.099Zm-.092-4.296-.253.162-.625-.975.252-.162.253-.162.625.975-.252.162Zm-.626-.975-.288-.083.087-.303.288.083.289.083-.088.303-.288-.083Zm.087-.303-.291-.073c.143-.568.292-1.05.469-1.6l.286.091.286.092a23.211 23.211 0 0 0-.459 1.564l-.291-.074Zm.464-1.582-.276-.117c.28-.66.553-1.323.818-1.99l.279.111.279.111a96.31 96.31 0 0 1-.824 2.003l-.276-.118Zm.821-1.996-.236-.186c-.003.005.008-.01.035-.066.024-.05.053-.114.085-.191.066-.155.141-.35.217-.553.154-.41.297-.818.358-.983l.281.104.282.103c-.053.145-.208.582-.359.987-.077.204-.156.408-.225.574a5.783 5.783 0 0 1-.099.222 1.068 1.068 0 0 1-.103.175l-.236-.186Zm.74-1.875-.284-.095c.176-.531.354-.923.486-1.27a5.21 5.21 0 0 0 .313-1.256l.297.038.298.04a5.824 5.824 0 0 1-.347 1.39c-.15.396-.305.726-.478 1.247l-.285-.095Zm.812-2.582-.283-.1.504-1.44.283.1.283.099-.504 1.44-.283-.1Zm.504-1.44-.264-.141c.2-.375.358-.642.48-.853.123-.213.203-.357.26-.503.112-.28.152-.594.168-1.44l.3.006.3.005c-.016.84-.054 1.255-.21 1.65a4.436 4.436 0 0 1-.299.583c-.124.214-.276.471-.47.834l-.265-.141Zm.944-2.931-.3.013c-.039-.87.081-1.378.309-1.858.109-.227.242-.45.376-.685.136-.24.285-.51.439-.855l.274.122.274.123c-.166.371-.325.66-.466.908-.144.251-.259.444-.355.645-.179.377-.287.784-.251 1.573l-.3.014Zm1.098-3.263-.188-.234-.022.02-.006.006.003-.003a5.79 5.79 0 0 0 .118-.156l.153-.213.243.176.243.176-.154.214a16.145 16.145 0 0 1-.138.182.45.45 0 0 1-.064.066l-.188-.234Zm.301-.404-.254-.16c.355-.563.544-.964.674-1.376.132-.42.206-.857.325-1.515l.295.054.296.053c-.116.642-.198 1.124-.344 1.59-.15.472-.364.92-.738 1.514l-.254-.16Zm1.04-2.997-.257.154-.238-.396.258-.154.257-.155.238.396-.258.155Zm-.237-.396-.075.29c-.232-.06-.244-.053-.254-.051a.753.753 0 0 0-.103.034 4.79 4.79 0 0 1-.279.097l-.091-.285-.091-.286c.111-.036.189-.065.253-.089.059-.021.129-.048.203-.061.165-.03.316.01.511.06l-.074.29Zm-.802.085.108.28c-1.02.393-1.602.815-2.563 1.432l-.162-.253-.162-.252c.939-.603 1.581-1.067 2.671-1.487l.108.28Zm-2.617 1.46.115.276c-.229.096-.488.268-.772.488-.285.22-.569.465-.868.71-.29.238-.592.471-.885.638-.287.163-.611.289-.936.248l.038-.298.038-.298c.129.017.312-.03.563-.174a6.29 6.29 0 0 0 .803-.58c.28-.23.587-.495.88-.721.294-.227.603-.44.908-.566l.116.276Zm-3.308 2.062-.242.178a1.31 1.31 0 0 1-.234-.711 3.587 3.587 0 0 1 .052-.743c.079-.516.188-.98.152-1.41l.299-.025.298-.025c.045.523-.087 1.104-.156 1.55a3 3 0 0 0-.046.617.71.71 0 0 0 .119.391l-.242.178Zm.027-2.711-.143.264c-.043-.023-.057-.018-.063-.016a.435.435 0 0 0-.127.072c-.055.04-.157.119-.262.171a.663.663 0 0 1-.451.061l.065-.293.066-.292c.008.002.019.004.053-.013.049-.024.09-.058.181-.122a.981.981 0 0 1 .331-.167.674.674 0 0 1 .493.071l-.143.264Zm-.981.26-.065.292a.687.687 0 0 1-.504-.42 1.494 1.494 0 0 1-.089-.54c-.003-.184.004-.32-.009-.462-.012-.137-.039-.206-.066-.24l.236-.186.236-.185c.137.174.177.386.192.559.015.167.009.367.011.503a.945.945 0 0 0 .042.32c.016.038.03.054.082.066l-.066.292Zm-.497-1.556.199.225-.161.143-.199-.224-.199-.225.161-.143.199.224Zm-.161.144.046.296c-1.2.187-2.476 1.065-3.695 2.137a38.364 38.364 0 0 0-1.719 1.631c-.533.531-1.031 1.035-1.463 1.427l-.201-.223-.202-.222c.419-.38.902-.869 1.443-1.407a38.996 38.996 0 0 1 1.746-1.657c1.225-1.077 2.614-2.063 3.998-2.279l.047.297Zm-7.032 5.268.14.265c-.271.144-.509.318-.813.501-.27.163-.595.332-.924.335l-.003-.3-.002-.3c.149-.001.348-.085.62-.249.238-.144.561-.368.841-.517l.141.265Zm-1.6.801-.272.127-.073-.158.272-.127.272-.126.073.158-.272.126Zm-.073-.158-.3.01c-.009-.293.014-.502.086-.71.066-.192.173-.378.293-.604l.265.141.265.14c-.137.259-.21.384-.256.518-.04.117-.061.248-.053.496l-.3.01Zm.344-1.163-.205-.219c.118-.11.336-.38.616-.762.273-.373.59-.832.901-1.3.629-.947 1.209-1.898 1.366-2.266l.276.118.276.118c-.183.428-.797 1.426-1.418 2.362-.314.473-.637.94-.917 1.323-.275.374-.525.69-.69.845l-.205-.219Zm2.954-4.429-.276-.118c.207-.482.35-.768.415-1.06.058-.265.049-.539-.104-.96l.282-.103.282-.102c.184.508.213.898.126 1.293-.081.366-.264.737-.449 1.168l-.276-.118Zm.317-2.24-.096.284c-.214-.072-.369-.116-.531-.167a1.887 1.887 0 0 1-.432-.185c-.294-.184-.442-.47-.567-.919l.289-.08.289-.08c.112.403.206.507.308.57.064.041.152.076.295.122.132.042.327.098.541.17l-.096.285Zm-1.337-1.067-.272-.128c.345-.732.561-1.33.647-1.79.089-.474.029-.733-.078-.864-.097-.121-.31-.225-.778-.184-.461.04-1.098.217-1.937.557l-.113-.278-.113-.278c.859-.348 1.562-.55 2.111-.598.543-.048 1.012.05 1.297.404.277.342.299.828.201 1.35-.1.536-.341 1.187-.694 1.937l-.271-.128Zm-2.531-2.687.113.278c-1.159.47-2.252 1.366-3.303 2.39-.524.51-1.031 1.044-1.528 1.567a40.93 40.93 0 0 1-1.456 1.481l-.206-.217-.207-.218c.462-.438.938-.937 1.435-1.46.495-.52 1.01-1.064 1.544-1.583 1.063-1.036 2.224-2 3.495-2.516l.113.278Zm-6.38 5.499.137.267c-.115.059-.204.11-.286.157a2.732 2.732 0 0 1-.242.13c-.188.084-.37.114-.642.099l.017-.3.016-.3c.201.012.283-.01.363-.046.05-.023.104-.054.188-.102.082-.047.182-.106.312-.172l.137.267Zm-1.016.353-.284.097c-.085-.25-.105-.43-.076-.629.013-.088.035-.176.056-.261.022-.089.046-.185.07-.306l.294.058.294.058c-.026.137-.054.246-.075.334-.023.091-.037.15-.045.204-.012.085-.012.168.05.349l-.284.096Zm26.749 84.18-.255.159a.452.452 0 0 0-.066-.088l-.016-.018a.073.073 0 0 0-.007-.006l.004.003.013.007a.211.211 0 0 0 .072.02l.029-.299.029-.298c.103.01.18.062.216.09a.75.75 0 0 1 .109.102c.056.064.103.132.126.17l-.254.158Zm-.226-.222-.029.299a15.085 15.085 0 0 0-1.467-.054c-.499 0-1.019.008-1.531-.007-1.026-.031-2.076-.159-3.049-.664l.138-.266.138-.267c.854.444 1.795.567 2.792.597.499.015.999.007 1.512.007.507 0 1.021.007 1.525.057l-.029.298Zm-5.938-.692-.138.266c-.201-.104-.521-.105-.937-.031a9.346 9.346 0 0 0-.601.134c-.195.048-.393.1-.567.133l-.058-.294-.058-.294c.155-.03.334-.077.539-.127.2-.05.42-.104.64-.143.423-.075.924-.115 1.318.09l-.138.266Zm-2.301.208-.122.274-.485-.216.122-.274.122-.274.485.216-.122.274Zm-.485-.216.025.3c-1.232.103-2.696.261-3.943.279l-.004-.3-.004-.3c1.218-.017 2.645-.172 3.901-.278l.025.3Zm-3.922.279.259-.152.187.32-.259.151-.259.151-.187-.319.259-.151Zm.187.319.052.295c-.275.049-.852.173-1.4.251a6.54 6.54 0 0 1-.812.072c-.238.002-.496-.017-.689-.111l.131-.27.13-.27c.059.028.195.053.421.05a5.79 5.79 0 0 0 .735-.065c.538-.076 1.067-.192 1.38-.247l.052.295Zm-2.718.237-.131.27a.607.607 0 0 1-.22-.192 1.137 1.137 0 0 1-.125-.226 3.433 3.433 0 0 1-.166-.515c-.045-.176-.086-.365-.122-.517a2.645 2.645 0 0 0-.097-.349l.279-.112.278-.112c.047.118.088.28.124.436.039.166.076.337.119.505.043.17.087.316.135.425a.57.57 0 0 0 .06.112c.017.023.018.015-.004.005l-.13.27Zm-.582-1.641-.279.112c-.22-.545-.719-1.085-1.336-1.564a9.558 9.558 0 0 0-1.869-1.118l.123-.274.124-.273c.6.27 1.336.684 1.99 1.191.648.504 1.246 1.123 1.525 1.814l-.278.112Zm-3.361-2.844-.293.062-.342-1.645.293-.06.294-.062.342 1.644-.294.061Zm-.342-1.644-.223.2c-.706-.79-1.487-1.517-2.28-2.252-.79-.731-1.592-1.47-2.322-2.27l.221-.203.222-.202c.71.778 1.493 1.5 2.287 2.235.79.733 1.591 1.478 2.319 2.292l-.224.2Zm-4.604-4.525-.299.017v-.002l-.001-.004-.001-.017-.003-.06-.01-.186-.017-.302.3-.016.3-.015.016.3.01.186a.807.807 0 0 1 .003.06l.001.017.001.004v.002l-.3.016Zm-.031-.57-.171.247c-.032-.022-.115-.052-.283-.068a5.944 5.944 0 0 0-.556-.015c-.204 0-.427.001-.633-.016-.2-.017-.419-.053-.6-.15l.141-.264.14-.265c.071.037.191.066.37.081.174.015.37.014.58.014.203 0 .422-.001.616.018.185.018.401.057.567.172l-.171.246Zm-2.102-.266-.297.041-.082-.588.297-.041.297-.041.082.588-.297.04Zm-.082-.588-.221.203c-.132-.144-.398-.262-.764-.358-.36-.094-.729-.148-1.057-.214l.06-.294.058-.294c.284.057.711.122 1.091.222.375.098.794.25 1.054.532l-.221.203Zm-1.983-.663-.19-.231.301-.249.191.232.191.231-.302.249-.19-.232Zm.302-.248.053-.296c.636.114 1.04.164 1.395.3.373.14.69.37 1.204.803l-.193.23-.193.229c-.512-.43-.762-.6-1.031-.702-.286-.109-.598-.146-1.288-.269l.053-.295Zm2.459 1.036.016-.3c.72.04 1.125.068 1.524.032.39-.035.783-.134 1.458-.373l.101.283.1.282c-.693.246-1.141.364-1.605.406-.454.04-.914.007-1.61-.03l.016-.3Z" mask="url(#b)"/><mask id="c" fill="#fff"><path d="m101.624 7.285.028-.087c.492-1.482 2.197-3.862 1.587-5.527-1.115-.759-4.602 2.158-5.317 3.045-3.819 4.736-7.306 9.77-10.674 14.837-.998 1.5-3.007 3.004-3.566 4.774-.163.124-2.325 2.01-2.416 2.142-2.001 2.918-4.364 5.45-6.486 8.268-1.12 1.47-1.978 3.082-3.171 4.43l.108-.21c-2.01 2.465-2.662 3.895-4.141 6.645-1.22 2.002-2.5 3.96-3.662 5.995-.181.318-.362.643-.564.947-2.103 1.316-4.467 2.701-6.563 4.009-1.329.83-2.052 2.56-3.81 3.549-.432.009-.832.03-1.261-.027-2.152-.637-4.151-1.605-6.272-2.303-10.474-3.45-18.627-3.215-27.707 3.418-.8.408-3.717 3.112-4.138 3.874.76-.507 1.57-1 2.348-1.485 2.644.084 2.291.867 3.63 1.138.976.208 1.321.386 2.284.196l.783-.018c.555.401.118.428.514.84.564-.032 1.05-.513 1.451-.618 1.913-.495 4.293-1.15 6.255-1.246.227-.01 1.174.35 1.382.43.447.04.663.025 1.018.297.98.753 1.944.892 2.296 1.335-.099.542-.897 1.05-1.328 1.464.574 1.25.665 1.77.87 3.136-.424.484-.941 1.043-1.316 1.553.674 1.13.97 1.645 2.098 2.395l-.355.366c1.081.967.833 2.13 2.764 2.627.092-.018.34-.062.413-.09l.065.175c2.167.002 3.372 1.644 5.404 2.286.71.224.65-.352 1.337-.14.564.175.977.662 1.554.703l.755-.138c1.794.556 2.508 2.172 4.943 2.204.461.137.853.303 1.218.635.362.127 1.78.591 2.12.35 1.867-1.317 4.11-3.33 5.494-5.169.27-.36-.22-1.515-.35-1.9l.154-.124.413.081.305-.49c.892-.941 1.838-2.974 2.54-3.617l.723.072c.474-.276.427-.406.734-.966l.692-.091-.209-.268c.1-.75 1.821-1.143 2.48-1.602.786-.548 1.508-1.316 2.23-1.87.826-.636 3.595-1.432 4.614-1.396.301-.281.757-.677 1.176-.665.34.04.529-.073.85-.201l.116-.272c.559-.253.418-.28.969-.23.299.25.202.125.335.553-.496.396-1.02.377-1.272.713.853.451 2.036-1.2 2.344.345-.096.253-.182.458-.242.723l.248.176.383.199c.363-.004.497.014.831-.153 1.514-.749 2.279-.802 3.985-1.088.716.609 2.087 2.928 2.353 3.74-.08.838-.442.505-.278 1.245.56.598 1.282.098 1.24 1.628-.034 1.314-.58 2.086-.944 3.236.641-.918.89-1.396 1.386-2.407 2.107-.99 3.162-1.11 4.68 1.018-.492.707-.72 1.118-1.116 1.882.437-.424 1.117-1.271 1.532-1.45.48.079.538.308.7.773.333.375.406.453.628.902l.068-.182.14.125c-.061.734-.19.827-.537 1.47l-.025.045c1.015.622 1.475.806 2.694 1.055.717 0 1.25-.023 1.959.13 1.326.238 1.433.176 2.459 1.037 1.416.076 1.73.126 3.099-.358.847-.327 1.277-.516 2.073-.951.562-.387 2.632-3.285 2.879-3.976.125-.47.986-1.494 1.343-2.114l.109-.108c.708-1.01 2.402-1.05 3.331-2.68.388-.422.825-.846 1.231-1.255.841-.776 1.016-.814 1.75-1.768.556-.812 1.377-1.309 1.887-2.227.587-.873.762-1.407.969-2.398.22-.58-.014-1.857.149-2.934.551-2.164.268-3.2-.373-5.27l-.014-.623c.149-.577.271-1.16.365-1.748.318-1.993.201-3.51-1.008-5.184l.077-.676c.848-1.807.943-3.72-.13-5.448l-.346-.367c.784-1.336 1.006-3.94.581-5.426-.196-.466-.156-1-.155-1.51.646-1.851.488-2.477-.092-4.296l-.626-.975.087-.302c.141-.56.287-1.033.464-1.582.281-.663.555-1.328.821-1.997.146-.184.626-1.565.74-1.875.35-1.053.665-1.444.812-2.582l.504-1.44c.788-1.475.912-1.245.944-2.931-.075-1.66.457-1.828 1.098-3.262.029-.024.263-.353.301-.405.729-1.157.806-1.698 1.04-2.997l-.238-.396c-.427-.11-.325-.067-.801.085-1.055.407-1.667.85-2.617 1.46-1.07.446-2.4 2.177-3.308 2.062-.456-.62.107-1.758.026-2.71-.419-.228-.605.343-.98.259-.619-.14-.169-1.138-.497-1.555l-.161.143c-2.584.403-5.331 3.728-7.032 5.268-.552.293-1.121.797-1.6.801l-.073-.158c-.017-.54.087-.68.344-1.163.567-.53 2.614-3.633 2.954-4.429.392-.914.654-1.311.317-2.24-.854-.29-1.1-.214-1.337-1.067 1.394-2.963.865-4.064-2.531-2.687-2.43.986-4.508 3.722-6.38 5.499-.489.25-.544.38-1.016.353-.146-.43-.041-.525.06-1.04Z"/></mask><path fill="#C1BC4A" stroke="#000" stroke-width=".6" d="m101.624 7.285.028-.087c.492-1.482 2.197-3.862 1.587-5.527-1.115-.759-4.602 2.158-5.317 3.045-3.819 4.736-7.306 9.77-10.674 14.837-.998 1.5-3.007 3.004-3.566 4.774-.163.124-2.325 2.01-2.416 2.142-2.001 2.918-4.364 5.45-6.486 8.268-1.12 1.47-1.978 3.082-3.171 4.43l.108-.21c-2.01 2.465-2.662 3.895-4.141 6.645-1.22 2.002-2.5 3.96-3.662 5.995-.181.318-.362.643-.564.947-2.103 1.316-4.467 2.701-6.563 4.009-1.329.83-2.052 2.56-3.81 3.549-.432.009-.832.03-1.261-.027-2.152-.637-4.151-1.605-6.272-2.303-10.474-3.45-18.627-3.215-27.707 3.418-.8.408-3.717 3.112-4.138 3.874.76-.507 1.57-1 2.348-1.485 2.644.084 2.291.867 3.63 1.138.976.208 1.321.386 2.284.196l.783-.018c.555.401.118.428.514.84.564-.032 1.05-.513 1.451-.618 1.913-.495 4.293-1.15 6.255-1.246.227-.01 1.174.35 1.382.43.447.04.663.025 1.018.297.98.753 1.944.892 2.296 1.335-.099.542-.897 1.05-1.328 1.464.574 1.25.665 1.77.87 3.136-.424.484-.941 1.043-1.316 1.553.674 1.13.97 1.645 2.098 2.395l-.355.366c1.081.967.833 2.13 2.764 2.627.092-.018.34-.062.413-.09l.065.175c2.167.002 3.372 1.644 5.404 2.286.71.224.65-.352 1.337-.14.564.175.977.662 1.554.703l.755-.138c1.794.556 2.508 2.172 4.943 2.204.461.137.853.303 1.218.635.362.127 1.78.591 2.12.35 1.867-1.317 4.11-3.33 5.494-5.169.27-.36-.22-1.515-.35-1.9l.154-.124.413.081.305-.49c.892-.941 1.838-2.974 2.54-3.617l.723.072c.474-.276.427-.406.734-.966l.692-.091-.209-.268c.1-.75 1.821-1.143 2.48-1.602.786-.548 1.508-1.316 2.23-1.87.826-.636 3.595-1.432 4.614-1.396.301-.281.757-.677 1.176-.665.34.04.529-.073.85-.201l.116-.272c.559-.253.418-.28.969-.23.299.25.202.125.335.553-.496.396-1.02.377-1.272.713.853.451 2.036-1.2 2.344.345-.096.253-.182.458-.242.723l.248.176.383.199c.363-.004.497.014.831-.153 1.514-.749 2.279-.802 3.985-1.088.716.609 2.087 2.928 2.353 3.74-.08.838-.442.505-.278 1.245.56.598 1.282.098 1.24 1.628-.034 1.314-.58 2.086-.944 3.236.641-.918.89-1.396 1.386-2.407 2.107-.99 3.162-1.11 4.68 1.018-.492.707-.72 1.118-1.116 1.882.437-.424 1.117-1.271 1.532-1.45.48.079.538.308.7.773.333.375.406.453.628.902l.068-.182.14.125c-.061.734-.19.827-.537 1.47l-.025.045c1.015.622 1.475.806 2.694 1.055.717 0 1.25-.023 1.959.13 1.326.238 1.433.176 2.459 1.037 1.416.076 1.73.126 3.099-.358.847-.327 1.277-.516 2.073-.951.562-.387 2.632-3.285 2.879-3.976.125-.47.986-1.494 1.343-2.114l.109-.108c.708-1.01 2.402-1.05 3.331-2.68.388-.422.825-.846 1.231-1.255.841-.776 1.016-.814 1.75-1.768.556-.812 1.377-1.309 1.887-2.227.587-.873.762-1.407.969-2.398.22-.58-.014-1.857.149-2.934.551-2.164.268-3.2-.373-5.27l-.014-.623c.149-.577.271-1.16.365-1.748.318-1.993.201-3.51-1.008-5.184l.077-.676c.848-1.807.943-3.72-.13-5.448l-.346-.367c.784-1.336 1.006-3.94.581-5.426-.196-.466-.156-1-.155-1.51.646-1.851.488-2.477-.092-4.296l-.626-.975.087-.302c.141-.56.287-1.033.464-1.582.281-.663.555-1.328.821-1.997.146-.184.626-1.565.74-1.875.35-1.053.665-1.444.812-2.582l.504-1.44c.788-1.475.912-1.245.944-2.931-.075-1.66.457-1.828 1.098-3.262.029-.024.263-.353.301-.405.729-1.157.806-1.698 1.04-2.997l-.238-.396c-.427-.11-.325-.067-.801.085-1.055.407-1.667.85-2.617 1.46-1.07.446-2.4 2.177-3.308 2.062-.456-.62.107-1.758.026-2.71-.419-.228-.605.343-.98.259-.619-.14-.169-1.138-.497-1.555l-.161.143c-2.584.403-5.331 3.728-7.032 5.268-.552.293-1.121.797-1.6.801l-.073-.158c-.017-.54.087-.68.344-1.163.567-.53 2.614-3.633 2.954-4.429.392-.914.654-1.311.317-2.24-.854-.29-1.1-.214-1.337-1.067 1.394-2.963.865-4.064-2.531-2.687-2.43.986-4.508 3.722-6.38 5.499-.489.25-.544.38-1.016.353-.146-.43-.041-.525.06-1.04Z" mask="url(#c)"/><path fill="#2B170A" d="m101.624 7.285.028-.087c.492-1.482 2.197-3.862 1.587-5.527-1.115-.759-4.602 2.158-5.317 3.045-3.819 4.736-7.306 9.77-10.674 14.837-.998 1.5-3.007 3.004-3.566 4.774-.163.124-2.325 2.01-2.416 2.142-2.001 2.918-4.364 5.45-6.486 8.268-1.12 1.47-1.978 3.082-3.171 4.43l.108-.21c-2.01 2.465-2.662 3.895-4.141 6.645-1.22 2.002-2.5 3.96-3.662 5.995-.181.318-.362.643-.564.947-2.103 1.316-4.467 2.701-6.563 4.009-1.329.83-2.052 2.56-3.81 3.549.569.615 1.153.86 1.883 1.264l-.198.247c1.79.415 6.49 2.854 7.843 3.966-.533.61-1.187 1.04-1.001 1.948.211 1.034-.928 3.604-1.252 4.663l.106-.047c.547-.743 1.445-2.99 1.602-3.947.072-.434-.154-.908-.104-1.009 1.977-3.758 5.955-6.593 8.936-9.587.132-.132 1.797-.618 2.685-1.34.186.035.371.076.555.122 1.682.429 3.298.63 3.122 2.369-.037.362.153.596.502.688.736-.367 2.084-2.915 2.715-3.724 1.38-1.77 3.32-3.084 4.803-4.723 1.353-1.493 2.914-2.92 4.247-4.363 2.094-2.266 4.154-4.75 6.505-6.792 2.348-2.075 5.093-3.785 7.566-5.69 2.3-1.774 3.92-3.22 6.506-4.625 2.892-1.572 5.137-3.747 8.556-4.273l.782.777c.118.616.282 1.236.434 1.846.141-.56.287-1.033.464-1.582.281-.663.555-1.328.821-1.997.146-.184.626-1.565.74-1.875.35-1.053.665-1.444.812-2.582l.504-1.44c.788-1.475.912-1.245.944-2.931-.075-1.66.457-1.828 1.098-3.262.029-.024.263-.353.301-.405.729-1.157.806-1.698 1.04-2.997l-.238-.396c-.427-.11-.325-.067-.801.085-1.055.407-1.667.85-2.617 1.46-1.07.446-2.4 2.177-3.308 2.062-.455-.62.107-1.758.026-2.71-.419-.228-.605.343-.98.259-.619-.14-.169-1.138-.497-1.555l-.161.143c-2.584.403-5.331 3.728-7.032 5.268-.552.293-1.121.797-1.6.801l-.073-.158c-.017-.54.087-.68.344-1.163.567-.53 2.614-3.633 2.954-4.429.392-.914.654-1.311.317-2.24-.854-.29-1.1-.214-1.337-1.067 1.394-2.963.865-4.064-2.531-2.687-2.43.986-4.508 3.722-6.38 5.499-.489.25-.544.38-1.016.353-.146-.43-.041-.525.06-1.04Z"/><path fill="#99953D" d="M117.917 8.149c-2.583.403-5.33 3.728-7.032 5.269-.949 1.203-2.82 2.762-4.001 3.832l-5.364 4.924c-2.684 2.45-5.304 5.123-7.933 7.594-3.47 3.262-7.444 6.604-10.836 9.937a165.955 165.955 0 0 0-7.542 7.985c-1.063 1.218-4.847 5.678-5.942 6.558-.298-.023-.732-.443-.995-.65-4.294-3.365-9.964 5.63-12.21 8.346 2.278.408 2.936 1.107 4.957 2.222.552.305 1.078.462 1.588.86 2.144-2.276 4.595-4.42 6.64-6.654-.31-.4.168-.028-.232-.894.035-.48 1.16-1.298 1.01-1.696-.126-.332-.562-.862-.562-1.345l.189-.108.264.117c.324.436.366.729.504 1.258 3.551-1.131 4.31-4.028 6.364-6.73.659-.867 1.896-2.029 2.698-2.794a855.847 855.847 0 0 0 27.717-27.259c3.133-3.171 6.839-5.29 9.884-8.503.382-.404.685-1.707.834-2.27Z"/><path fill="#C1BC4A" d="M111.491 5.161c1.394-2.963.865-4.064-2.531-2.687-2.43.986-4.508 3.722-6.38 5.499-.865 1.094-1.949 1.977-2.961 2.942l-4.533 4.378c-3.412 3.316-6.648 6.969-9.985 10.392-6.414 6.58-11.475 14.532-17.174 21.738-1.38 1.744-2.345 3.806-3.646 5.563.546-.25 1.657-.653 2.027-1.034l.056-.059c.964-.995 1.518-2.301 2.334-3.396 2.633-3.53 5.683-6.85 8.48-10.263 2.78-3.392 5.968-6.51 8.739-9.934.595-.568 1.188-1.141 1.807-1.685 5.73-5.036 11.198-10.3 16.63-15.65 1.072-1.055 2.377-1.373 3.575-2.15 1.314-.85 2.562-2.459 3.562-3.654ZM126.494 8.8l-.238-.395c-.427-.11-.325-.067-.802.085-1.055.407-1.667.85-2.617 1.46-1.449 1.782-5.055 4.635-6.93 6.203-.591.494-2.585 1.367-3.366 1.99-1.991 1.589-3.903 3.303-5.88 4.898-1.635 1.32-3.438 2.524-5.096 3.838-3.993 3.166-6.836 7.325-10.402 10.82-4.41 4.323-9.018 8.514-13.377 12.894-.259.26-2.717 2.567-2.713 2.561-.435.222-.863.365-1.059.796-.061.369-.06.416.024.78-.227.375-.423.706-.261 1.118.459.299 1.782.52 2.355.6.712.1 1.412-1.757 1.852-2.198 1.587-1.59 2.974-3.245 4.392-4.979 2.993-3.659 6.375-7.02 9.62-10.452 2.362-2.4 4.446-5.087 7.157-7.124 1.527-1.147 3.121-2.36 4.702-3.431 2.913-1.973 5.718-3.626 8.185-6.2l.326.12.147.268c.397.053.755-.42 1.261-.697.528-.355 1.93-.627 2.372-.987 2.525-2.051 4.888-4.307 7.441-6.338.635-.506.578-1.644 1.566-2.227a8.34 8.34 0 0 0 .3-.405c.73-1.157.806-1.698 1.041-2.997Z"/><path fill="#C1BC4A" d="M125.153 12.203c-.459-.237-.91-.487-1.352-.751-2.238 2.356-4.72 4.385-7.139 6.54-1.454 1.296-2.85 2.882-4.296 4.193l.147.267c.397.053.755-.42 1.261-.697.528-.355 1.93-.627 2.373-.987 2.524-2.051 4.887-4.307 7.44-6.338.635-.506.578-1.644 1.566-2.227Z"/><path fill="#2B170A" d="m126.494 8.8-.238-.395c-.427-.11-.325-.067-.802.085-.573 2.374-7.189 7.542-9.244 9.495a235.033 235.033 0 0 0-4.17 4.078l.326.122c1.446-1.311 2.842-2.897 4.296-4.193 2.418-2.155 4.901-4.184 7.139-6.54.442.264.893.514 1.352.75a8.34 8.34 0 0 0 .3-.404c.73-1.157.806-1.698 1.041-2.997Z"/><path fill="#AA9F52" d="M126.494 8.8c-.746.496-1.857 1.426-2.248 2.228l.041.212c.577.127.771.136 1.166.558.729-1.157.806-1.698 1.041-2.997ZM75.073 53.155c-.435.22-.863.364-1.059.796-.061.368-.06.415.024.779.506.136 1.267.38 1.566-.118-.004-.493-.303-.757-.496-1.35l-.035-.107Z"/><path fill="#C1BC4A" d="M122.607 19.836c-.624.331-1.255.743-1.898 1.16-.814.528-2.386.99-2.882 1.787-.243.39.02.382-.464.702-.155-.289-.067-.621.027-.933a5.84 5.84 0 0 1 .113-.34c-.247-.417-.926-.66-1.403-.847-2.936.816-6.037 3.023-8.528 4.813-3.043 2.187-7.183 4.574-9.853 7.251-5.662 5.679-11.401 11.655-16.449 17.898-.856 1.06-3.877 3.754-4.029 4.872.462.821-.04 2.092.401 2.674.356-.145.993-1.183 1.183-1.536 1.373-2.55 3.684-4.15 5.613-6.16 2.517-2.62 5.183-5.083 7.477-7.904.556-.684 1.33-1.302 1.941-1.948 2.68-2.866 5.971-4.933 9.125-7.22 1.444-1.047 2.79-2.36 4.31-3.32 2.292-1.383 4.513-2.885 6.836-4.205 1.216-.691 1.821-.978 2.614-2.183 1.181.395 1.577.379 2.805-.248a7.478 7.478 0 0 0 2.249-1.731c.35-1.053.664-1.444.812-2.582Zm-9.78-13.608c-1.726.181-1.498.367-2.826 1.19-1.939 1.2-2.543 2.917-3.893 4.321-3.629 3.773-7.376 7.386-10.968 11.196-3.076 2.806-5.57 6.02-8.315 9.127-3.51 3.973-7.59 7.621-10.85 11.792-1.314 1.682-7.009 7.674-7.34 9.228l.078.307c1.147.333 2.698-1.943 3.399-2.744 4.56-5.212 9.2-10.424 14.462-14.946 5.147-4.735 11.292-10.059 15.679-15.447.408-.77 3.804-4.078 4.577-4.698l.308.14c.624-.609 1.221-1.253 1.898-1.798l.176.165c-.016-.54.087-.68.344-1.163.567-.53 2.614-3.634 2.955-4.43.391-.913.654-1.311.316-2.24Z"/><path fill="#2B170A" d="M109.556 12.898c-.903.89-1.812 1.775-2.725 2.655l.308.14c.624-.608 1.22-1.252 1.897-1.798l.176.165c-.016-.54.087-.68.344-1.162Z"/><path fill="#C1BC4A" d="m101.624 7.285.028-.087c.492-1.482 2.197-3.862 1.587-5.527-1.115-.759-4.602 2.158-5.317 3.045-3.819 4.736-7.306 9.77-10.675 14.837-.997 1.5-3.006 3.004-3.565 4.774.15.455.42.893.489 1.101.21.034.32 0 .527-.034 2.705-2.067 5.599-5.79 8.05-8.255 3.13-3.147 6.679-5.996 8.876-9.854Zm22.431 8.18c-.305-.083-.682-.242-.941-.058-1.162.825-6.739 4.73-5.941 6.142.594.305 1.421.083 2.028-.106 1.673-.523 2.666-1.955 3.91-3.047.787-1.475.912-1.245.944-2.931Z"/><path fill="#BDA939" d="M68.671 45.576c-.602-.378-.553-.314-1.096.026-1.22 2.002-2.5 3.96-3.662 5.995-.18.317-.362.643-.564.947l.62-.086c.82-.709 4.015-5.75 4.702-6.882Z"/><path fill="#79532B" d="M106.83 15.554c-.772.62-4.168 3.927-4.576 4.697 1.139.197 2.314-1.193 3.01-2l-.093-.19c.073-.646 1.432-1.844 1.967-2.368l-.308-.14Z"/><path fill="#C0954C" d="m109.212 14.06-.176-.165c-.677.546-1.273 1.19-1.897 1.797-.535.525-1.895 1.723-1.968 2.369l.094.189c1.109-1.11 3.201-2.789 4.021-4.032l-.074-.158Z"/><path fill="#BDA939" d="m121.055 24.293-.056-.31c-.536-.256-1.829.566-2.257.931l.034.226c.653.34.76.425 1.169 1.037l.289.112c.281-.662.555-1.327.821-1.996ZM69.247 58.371c.576-.5 2.072-1.678 2.007-2.458-.892-.213-1.44 1.3-2.24 1.565.401.865-.078.494.233.893Z"/><path fill="#C1BC4A" d="M107.27 9.701c-1.832.178-4.632 3.447-5.953 4.722l-7.562 7.239c-2.349 2.244-5.664 4.713-7.79 7.115-3.555 4.146-7.257 8.222-10.697 12.449-1.374 1.688-8.374 9.173-8.285 11.055.395.145.613.249 1.036.255.798-.337 3.474-4.28 4.33-5.166 1.941-2.009 3.753-4.472 5.589-6.527 2.467-2.763 5.394-5.231 7.814-8.099 1.675-1.983 3.44-3.9 5.081-5.917.908-1.152 2.346-2.192 3.247-3.293 3.85-4.706 9.685-8.95 13.19-13.833Zm12.087-.035c-.368.168-1.756.753-1.982.946-.957.815-1.882 1.824-2.853 2.633-1.824 1.519-3.837 2.889-5.594 4.487-1.568 1.426-2.962 3.08-4.522 4.546-.557.523-2.732 2.567-3.042 3.092-.136.774-1.254 1.263-1.079 1.576.228-.057.415-.097.646-.137 1.689-1.4 3.772-2.645 5.536-4.04 1.864-1.473 3.711-3.265 5.526-4.694 1.333-1.05 3.358-1.769 4.762-3.08 2.03-1.898 2.407-2.638 2.602-5.33ZM97.139 29.717c-4.237 3.927-8.262 7.873-12.324 11.981-2.658 2.69-6.087 5.265-8.357 8.285.174.528.053.41.453.71 4.862-4.789 10.128-9.363 14.96-14.191 1.296-1.295 4.517-4.828 5.433-6.311l-.165-.474Z"/><path fill="#BDA939" d="M101.364 25.37c-1.013.851-3.437 3.306-4.225 4.346l.165.474c.415-.819 2.707-2.434 3.627-3.381a8.93 8.93 0 0 0-.646.136c-.175-.313.943-.801 1.079-1.574ZM73.427 54.938c-.939.193-1.62.85-1.748 1.813 1.067-.076 1.54-.833 1.748-1.813Z"/><path fill="#C0954C" d="M76.458 49.983c-.577.838-1.033 1.49-1.476 2.413.558-.47 1.46-1.193 1.93-1.703-.4-.3-.28-.182-.454-.71Z"/><path fill="#150903" d="M121.03 54.427c-2.855 1.113-4.014.945-6.937 1.44-3.45.584-8.805 1.885-12.271 1.821l-.083-.197c-3.503.212-6.681.557-9.876 2.162-2.532 1.271-5.284 1.932-7.536 3.684-.398.31-.559.59-1.075.703-.719.531-1.163.325-1.627.727.478.1.95.138 1.259.501.365.926-.735 1.41-1.473 1.736l.019.206.23.097c1.513-.748 2.278-.802 3.984-1.088.716.61 2.088 2.928 2.353 3.74-.08.839-.442.505-.278 1.245.56.598 1.283.098 1.241 1.628-.035 1.314-.58 2.086-.944 3.236.64-.918.889-1.396 1.385-2.407 2.107-.99 3.163-1.109 4.68 1.018-.492.707-.72 1.118-1.115 1.883.436-.425 1.116-1.272 1.531-1.451.48.08.538.309.7.773.333.375.406.453.629.902l.067-.181.14.124c-.06.735-.19.827-.536 1.47l-.025.046c1.015.621 1.474.805 2.693 1.054.717.001 1.25-.023 1.959.131 1.326.237 1.433.175 2.459 1.037 1.416.075 1.731.126 3.099-.359.847-.327 1.277-.516 2.074-.951.561-.387 2.631-3.285 2.878-3.976.125-.47.986-1.494 1.343-2.113l.11-.109c.707-1.009 2.401-1.05 3.331-2.68.387-.421.825-.846 1.231-1.254.84-.777 1.016-.815 1.75-1.77.555-.811 1.376-1.307 1.886-2.226.587-.873.763-1.406.97-2.398.219-.58-.015-1.856.149-2.934.55-2.164.267-3.2-.374-5.27Z"/><path fill="#C1BC4A" d="M121.03 54.427c-2.855 1.113-4.014.945-6.937 1.44-3.45.584-8.805 1.885-12.271 1.821-4.793.673-7.517 1.13-11.957 3.263-2.665 1.28-3.753 1.496-6.282 3.384-.32.564-.314 1.071-.176 1.692l.136.1c4.845-.897 9.72-2.924 14.876-3.141.132.11.338.27.442.394 3.013-.326 5.947-.356 8.926-.628 3.669-.335 6.951-.505 10.641-.332.563.026 1.977-1.113 2.618-1.07.079.426.148.853.209 1.281.219-.58-.015-1.856.149-2.934.55-2.164.267-3.2-.374-5.27Z"/><path fill="#2B170A" d="M121.404 59.697c-.612.78-1.4 1.574-2.229 2.12-4.583.126-8.873.12-13.426.822-1.814.28-5.734-.135-7.33.346.133.111.338.27.442.395 3.013-.325 5.947-.356 8.926-.628 3.669-.335 6.951-.505 10.641-.332.564.026 1.977-1.113 2.618-1.07.079.426.149.853.209 1.281.219-.58-.015-1.856.149-2.934Z"/><path fill="#C1BC4A" d="M121.255 62.631c-.06-.428-.13-.855-.209-1.28-.64-.044-2.054 1.095-2.617 1.069-3.691-.173-6.972-.003-10.642.332-2.978.272-5.913.303-8.925.628-1.51.208-3.024.383-4.535.586-2.784.374-5.51 1.19-8.2 1.996l.052.041c.867.716.81 1.213 1.442 1.995.073.09 2.96-.535 3.236-.597 8.734-1.93 20.029 1.353 28.423-1.35.279-.29.718-.773 1.006-1.022.586-.873.762-1.406.969-2.398Z"/><path fill="#C1BC4A" d="M118.399 67.256c-.161-.215-.227-.402-.483-.383-.939.069-2.091.269-3.013.369-1.27.134-2.545.222-3.822.262-2.563.081-23.081-1.179-23.195 1.49.622.958 2.66.609 3.704.53 2.387-.18 4.68-.264 7.072-.077 3.935.082 7.58 1.484 11.499 1.278 2.383-.144 4.272-.936 6.488-1.7.84-.777 1.016-.815 1.75-1.77Z"/><path fill="#C1BC4A" d="M112.902 70.694c-6.038 1.139-9.627-.78-15.508-.97-1.732-.056-3.662.022-5.4.068-1.123.03-2.34.242-3.454.14l-.217.12c-.07.593.918 2.197 1.239 2.758.368.181 4.292-.35 5.1-.371 2.792-.073 5.566.132 8.349.316 1.317.087 3.102.348 4.364.31 1.593-.046 3.228-.682 4.916-.784.426-.71 1.013-.758 1.716-1.465-.324-.251-.396.24-1.105-.122Zm-2.59 4.337c-2.929.627-5.604.844-8.632.574-1.545-.137-3.382-.743-4.962-.63-.675.048-1.056.458-1.52.91.332.374.406.452.628.901l.067-.181.14.125c-.06.734-.19.826-.536 1.47l-.025.045c1.015.621 1.475.805 2.693 1.055.717 0 1.25-.024 1.96.13 1.325.237 1.432.175 2.458 1.037 1.416.076 1.731.126 3.099-.359.847-.327 1.277-.516 2.074-.95.562-.388 2.631-3.286 2.878-3.977l-.322-.15Z"/><path fill="#41300D" d="m110.635 75.181-.323-.15c-.342 1.87-3.353 3.03-4.94 2.587l.108.293c1.195.143 2.143-.366 2.605.207.024.4-.154.681-.328 1.038.561-.387 2.631-3.284 2.878-3.975Z"/><path fill="#240D0A" d="M105.371 77.618c-.708-.398-1.9-.411-2.451-.666-1.375-.636-1.452-.873-2.947-1.34 1.479 1.276 3.59 2.055 5.506 2.298l-.108-.292Z"/><path fill="#C1BC4A" d="M112.087 72.96c-1.6-.208-3.248.48-4.573.44-4.872-.142-9.49-.594-14.368-.622.466.603.912 1.208 1.442 1.756.483.143 1.015.314 1.522.207 1.74-.365 3.464.262 5.194.427 3.376.323 8.155.632 10.673-2.1l.11-.108Z"/><path fill="#A98A46" d="M115.418 70.28c-.703-.474-1.692.14-2.516.415.709.361.781-.13 1.105.12-.702.708-1.289.757-1.715 1.466.935-.13 2.409-1.408 3.126-2.001Z"/><path fill="#C1BC4A" d="M120.401 33.446c-2.165 4.768-18.32 10.09-23.462 13.406-5.702 3.677-10.23 6.106-15.074 11.224-.373-.074-.485-.17-.792-.374-1.27 1.48-1.15 1.393-1.855 3.049l.203.121c-.27.748-.545 1.41-.992 2.075-.047.069.372.621.427.689-.052.474-.303.57-.692.82-.102.247-.121.265-.1.526.559-.253.418-.281.969-.231.299.25.201.125.334.554-.495.396-1.02.376-1.271.713.852.45 2.036-1.2 2.344.344-.096.253-.182.458-.242.724l.248.175.383.199c.363-.004.496.015.831-.153l-.23-.097-.018-.206c.738-.325 1.838-.81 1.472-1.736-.308-.363-.78-.4-1.258-.501.463-.402.908-.196 1.626-.727.517-.114.677-.393 1.076-.703 2.251-1.752 5.003-2.413 7.535-3.684 3.195-1.605 6.373-1.95 9.876-2.162l.083.197c3.466.064 8.821-1.236 12.271-1.82 2.923-.496 4.082-.328 6.938-1.44l-.014-.624c.149-.577.271-1.16.365-1.748.317-1.992.201-3.51-1.009-5.184l.078-.676c.848-1.806.943-3.72-.13-5.448l-.346-.367c.784-1.336 1.006-3.94.581-5.425-.197-.466-.156-1-.155-1.51Z"/><path fill="#C1BC4A" d="M120.373 46.872c-1.02.416-2.397 1.152-3.399 1.474-3.18 1.022-6.351 1.625-9.522 2.734-3.63 1.27-7.813 3.092-11.409 4.327-1.617.556-12.415 6.791-13.04 6.85.113.576.264 1.2.25 1.782.515-.113.676-.393 1.074-.703 2.252-1.751 5.004-2.412 7.536-3.683 3.195-1.605 6.373-1.95 9.876-2.162l.083.197c3.466.063 8.821-1.237 12.271-1.821 2.923-.495 4.082-.328 6.938-1.44l-.015-.623c.149-.577.271-1.16.366-1.748.317-1.993.201-3.51-1.009-5.184Z"/><path fill="#41300D" d="M121.016 53.804c-1.773 1.22-5.071 1.305-7.256 1.734-3.921.769-8.026 1.839-12.022 1.953l.083.197c3.467.063 8.822-1.237 12.272-1.821 2.923-.495 4.082-.328 6.937-1.44l-.014-.623Z"/><path fill="#C1BC4A" d="M120.321 40.748c-1.608.796-2.559 2.099-4.391 2.969-4.714 2.238-10.241 3.779-14.888 5.924a116.414 116.414 0 0 0-14.15 7.91c-2.16 1.427-4.211 3.039-6.42 4.43 3.416.054 4.147-1.118 7.027-2.575 4.68-2.368 9.067-4.903 14.09-6.503 1.836-.586 3.697-1.567 5.567-2.126 4.348-1.593 9.428-1.983 13.294-4.581.849-1.807.943-3.72-.129-5.448Z"/><path fill="#150903" d="M120.4 33.446c-2.165 4.768-18.32 10.09-23.46 13.405-5.703 3.678-10.232 6.106-15.075 11.224-.373-.073-.485-.17-.792-.373-1.27 1.48-1.15 1.392-1.856 3.049l.204.121c-.27.747-.545 1.41-.992 2.075-.047.069.372.621.427.689-.052.474-.303.57-.692.819-.102.248-.122.266-.1.526.559-.252.418-.28.969-.23.298.25.201.125.334.554-.495.395-1.02.376-1.272.713.853.45 2.037-1.2 2.345.344-.096.253-.182.458-.243.724l.249.175.383.199c.362-.004.496.015.83-.153l-.229-.097-.018-.206c.737-.325 1.837-.81 1.472-1.736-.308-.363-.78-.4-1.258-.501.463-.402.907-.196 1.626-.727.015-.583-.136-1.207-.25-1.783.626-.059 11.425-6.294 13.041-6.85 3.596-1.235 7.779-3.057 11.409-4.326 3.172-1.11 6.342-1.713 9.522-2.735 1.002-.322 2.379-1.057 3.399-1.474l.078-.676c-3.867 2.598-8.947 2.988-13.295 4.58-1.869.56-3.73 1.541-5.567 2.127-5.022 1.6-9.41 4.135-14.09 6.503-2.88 1.457-3.61 2.629-7.027 2.575 2.209-1.391 4.26-3.003 6.42-4.43a116.39 116.39 0 0 1 14.151-7.91c4.647-2.145 10.173-3.686 14.887-5.924 1.832-.87 2.784-2.173 4.391-2.97l-.346-.366c-.901.748-2.75 2.316-3.739 2.8-6.25 3.062-13.18 4.673-19.287 8.085-2.743 1.533-5.564 2.922-8.2 4.65-3.032 1.954-6.22 3.968-8.98 6.288l-.18-.061c-.09-.794.875-1.772 1.35-2.368 5.884-7.398 16.736-13.136 25.201-17.137 3.021-1.428 6.059-2.703 9.033-4.253 1.161-.605 4.558-3.335 5.383-3.43-.197-.465-.156-1-.156-1.51Z"/><path fill="#C1BC4A" d="M83.003 62.257c-.54.218-.713.265-1.11.68l-.125-.236c-.265-.201-.597-.391-.922-.281-1.543.521-1.516 1.665-1.077 2.746.718.463 1.72 1.226.678 2.094l.382.199c.363-.004.497.015.832-.153l-.23-.097-.019-.206c.738-.325 1.838-.81 1.472-1.735-.308-.364-.78-.4-1.258-.501.464-.402.908-.196 1.627-.728.014-.582-.137-1.206-.25-1.782Z"/><path fill="#BDA939" d="M83.003 62.257c-.54.218-.713.265-1.11.68-.277.412-.788 1.074-1.146 1.403.307.226.494.41.88.427.463-.402.907-.196 1.626-.728.014-.582-.137-1.206-.25-1.782Z"/><path fill="#2F3713" d="M81.767 62.7c-.428.448-.891.873-1.155 1.43l.05.171.084.038c.359-.328.87-.99 1.147-1.402l-.126-.236Z"/><path fill="#BDA939" d="M81.073 57.702c-1.27 1.48-1.15 1.392-1.855 3.048l.203.122c.513-.437 1.956-2.22 2.443-2.797-.372-.073-.484-.17-.791-.373Z"/><path fill="#C1BC4A" d="M120.309 29.15c-.543-.064-.857.092-1.28.444-1.398 1.164-3.005 2.963-4.544 3.91-2.472 1.519-5.389 3.376-7.96 4.714-3.185 1.657-6.336 2.977-9.38 4.961-4.627 3.014-8.48 6.565-12.235 10.58-1.272 1.361-2.571 2.484-3.837 3.943.308.203.42.3.792.373 4.844-5.118 9.372-7.547 15.075-11.224 5.141-3.315 21.296-8.637 23.461-13.405.646-1.852.488-2.478-.092-4.297Z"/><path fill="#2B170A" d="M119.683 28.174c-6.411 7.577-14.974 9.796-23.04 14.889-5.406 3.413-9.922 8.24-14.339 12.784-.604.63-3.64 3.815-3.605 4.415.201.217.282.314.519.489.705-1.657.585-1.569 1.855-3.05 1.265-1.458 2.564-2.58 3.837-3.941 3.756-4.016 7.608-7.567 12.234-10.581 3.045-1.984 6.196-3.304 9.381-4.961 2.571-1.338 5.488-3.195 7.959-4.715 1.539-.946 3.147-2.745 4.545-3.91.422-.351.736-.507 1.279-.444l-.625-.975Z"/><path fill="#240D0A" d="M33.263 64.599c.98.753 1.945.891 2.297 1.335-.1.542-.898 1.05-1.329 1.463.574 1.25.666 1.771.87 3.137-.424.483-.941 1.042-1.316 1.553.674 1.13.97 1.644 2.098 2.394l.119.036.123-.13c-.316-.796-2.95-1.675-1.455-2.77 1.697-1.244.022-2.544.095-4.168.023-.504 1.154-1.061 1.297-1.68-.316-.477-2.157-.965-2.799-1.17Z"/><path fill="#2B170A" d="m66.115 71.346.027-.115c-1.462.465-2.443.664-3.125 2.218-.317.724-1.022 1.638-.898 2.407.891-.94 1.837-2.974 2.54-3.616l.722.072c.474-.276.426-.406.734-.966Z"/><path fill="#380A06" d="M17.736 61.19c-.798.408-3.716 3.112-4.138 3.874.76-.507 1.57-1 2.349-1.485 2.644.084 2.29.867 3.63 1.138a1.307 1.307 0 0 0-.522-.581c-1.452-.893-1.973-.971-3.533-.639a77.093 77.093 0 0 0 2.214-2.307Zm29.329 19.218c-.172-.392-.925-.913-1.32-1.105-.619-.299-.756.4-1.42.209-2.038-.585-3.4-2.31-5.62-2.128l.066.176c2.167.002 3.372 1.643 5.404 2.285.71.224.65-.352 1.336-.14.564.176.977.662 1.554.703Zm5.699 2.066c-.856-.572-2.605-.984-3.5-1.788-.369-.33-.94-.537-1.443-.416 1.793.556 2.508 2.172 4.943 2.204Z"/><path fill="#150903" d="M52.978 60.102c-.432.009-.832.03-1.262-.027.713.38 2.291 1.295 2.945 1.538l.2-.248c-.731-.404-1.316-.648-1.883-1.263Z"/><path fill="#2B170A" d="M50.024 72.096c-.994.568-1.329.865-2.458 1.414-.58-.361-1.567-.734-2.18-.324-.21.667-.032.739.033 1.46-.306.797-1.414 1.469-2.121 1.993l.051.165c.94-.426 2.574-1.282 2.5-2.405-.009-.137.064-.849.24-.853 1.083-.024 3.864.042 3.935-1.45Z"/><path fill="#F95D37" stroke="#000" stroke-width=".3" d="M15.868 63.452c-.582.363-1.186.732-1.773 1.109l-.58.38-.011.006-.01.01c-.446.435-.739.793-.951 1.207-.207.402-.332.85-.458 1.454l-.005.005a1.674 1.674 0 0 0-.63-.124 5.183 5.183 0 0 0-.88.068c-.306.044-.624.104-.92.155-.299.05-.578.092-.82.105-1.53-.035-3.369.115-4.872.443-.295.042-.71.09-1.108.157-.346.058-.699.134-.968.245l-.11.05-.066.033-.015.073-.04.204-.017.09.07.056c.32.261.885.634 1.474.943.295.154.599.294.885.396.272.097.537.161.765.168.487.124 1.785.486 3.056.82a66.51 66.51 0 0 0 1.777.446c.255.059.482.108.666.142.155.029.29.046.385.05.217.116.424.215.615.337.188.12.344.253.449.424l.03.263a.44.44 0 0 1 .008.105.331.331 0 0 1-.033.09l-.094.199c-1.668.581-2.555.763-4.365.812-.293.008-.784 0-1.286.006-.247.004-.492.01-.707.025a3.73 3.73 0 0 0-.426.05l-.112.026-.072.02-.027.07-.062.16-.039.1.083.07c.477.4 1.146.684 1.876.894.731.21 1.537.35 2.299.454.76.104 1.485.172 2.043.238.282.034.52.067.705.103.092.018.168.036.226.055a.72.72 0 0 1 .071.025c.147.483.282 1 .423 1.517.146.536.3 1.071.476 1.556 1.555 4.273 3.456 8.357 5.463 12.421.35.707.626 1.518.9 2.343.273.821.545 1.658.879 2.402l-.001.001c2.013 4.633 4.395 10.043 7.408 14.125.634.86 1.71 1.803 2.818 2.717 1.114.92 2.262 1.811 3.069 2.582.202.193.549.478.875.752.334.281.641.548.784.719l.006.007.006.006c.748.715 1.505 1.518 2.481 1.987 1.568.753 3.347 1.743 5.037 2.222l.463.201c.628.399 1.298.727 1.998.98 1.032.372 2.257.59 3.315.86.578.147 1.289.42 2.017.672.718.248 1.453.476 2.051.513l.066-.288c-2.164-.892-3.526-1.567-4.668-2.515-1.122-.932-2.039-2.136-3.29-4.091 1.12-1.01 1.46-1.854 1.965-3.222l.23-.134c.862.431 1.96.631 2.832.014l.091.018c.09.018.216.041.366.068l1.11.197c.827.147 1.694.301 1.92.358l.042.011.042-.014c1.464-.482 2.632-.643 3.824-.723 1.187-.08 2.426-.082 3.986-.244l.1-.01.029-.097.052-.176c1.54-.373 3.019-.851 4.289-1.847 2.353-1.843 3.403-3.065 3.951-4.483.273-.705.42-1.452.545-2.336.126-.877.23-1.864.418-3.111l.243-.147.065-.038.008-.075c.034-.33.057-.552.059-.772a4.548 4.548 0 0 0-.072-.775l-.015-.095-.092-.026-.232-.067a9.534 9.534 0 0 1-.179-.733c-.06-.289-.119-.59-.183-.853-.78-3.216-2.713-5.55-4.798-7.955v-.311l-.11-.03c-.44-.12-.775-.214-1.02-.386-.231-.163-.392-.403-.447-.853l-.003-.021-.008-.02c-.202-.474-.352-.742-.607-.898a1.425 1.425 0 0 0-.433-.16c-.159-.036-.357-.071-.594-.118-.63-.306-.887-.824-1.204-1.285-.155-.227-.33-.445-.58-.58-.224-.119-.492-.163-.83-.113l-.15.028-.104.023-.012.105-.011.09-.097.137c-.028.04-.03.037-.023.032.01-.006.014-.002-.028.004l-.146.02c-.157-.066-.35-.212-.562-.425a7.36 7.36 0 0 1-.673-.806c-.442-.6-.834-1.26-1.019-1.637l-.04-.082-.09-.002c-.513-.012-.901-.02-1.243-.118-.331-.096-.625-.282-.933-.67l-.008-.009-.009-.007c-.388-.354-.804-.528-1.275-.668l-.02-.006h-.02c-1.178-.015-1.938-.412-2.631-.88-.69-.466-1.346-1.032-2.27-1.319l-.035-.01-.037.007-.731.134c-.244-.021-.461-.133-.701-.278-.236-.142-.502-.322-.806-.416a.94.94 0 0 0-.473-.04.997.997 0 0 0-.304.126.691.691 0 0 1-.219.091.697.697 0 0 1-.34-.038l-.364-.129c-.828-.323-1.522-.804-2.256-1.24-.806-.479-1.649-.894-2.723-.92l-.03-.081-.054-.144-.142.056a1.567 1.567 0 0 1-.174.042l-.119.023a.682.682 0 0 1-.06.01c-.45-.119-.77-.274-1.01-.45a2.316 2.316 0 0 1-.57-.615 7.144 7.144 0 0 1-.22-.357c-.07-.123-.145-.252-.226-.381a3.655 3.655 0 0 0-.532-.672l.252-.258.125-.13-.15-.1c-.555-.368-.9-.676-1.187-1.025-.275-.335-.5-.712-.811-1.234.363-.482.84-1.002 1.245-1.464l.046-.052-.01-.07c-.2-1.335-.295-1.878-.837-3.075.087-.078.185-.162.29-.25.136-.114.283-.236.42-.362.265-.246.525-.539.585-.863l.012-.067-.042-.053a1.375 1.375 0 0 0-.413-.328c-.163-.09-.354-.176-.556-.267-.407-.184-.879-.401-1.353-.766l-.14-.098a1.233 1.233 0 0 0-.393-.166c-.162-.037-.34-.045-.543-.063a20.63 20.63 0 0 0-.67-.243 7.462 7.462 0 0 0-.424-.132 1.227 1.227 0 0 0-.33-.056l-.376.025c-1.903.154-4.122.763-5.909 1.225a1.592 1.592 0 0 0-.35.15c-.111.06-.237.137-.35.201-.217.123-.43.225-.649.254a.484.484 0 0 1-.092-.14c-.015-.043-.014-.072-.02-.139a.492.492 0 0 0-.082-.243 1.163 1.163 0 0 0-.296-.281l-.041-.03-.05.002-.783.017h-.014l-.012.002c-.925.183-1.233.017-2.224-.195h-.002c-.636-.128-.843-.366-1.279-.621-.437-.257-1.037-.477-2.375-.52l-.045-.002-.039.025Z"/><path fill="#C1BC4A" stroke="#000" stroke-width=".3" d="M11.565 72.279c.187.129.36.285.483.496l.016.028.004.03c.014.138.028.226.037.294a.696.696 0 0 1 .006.186.604.604 0 0 1-.059.174c-.03.063-.064.133-.12.256l-.026.06-.06.02c-1.733.607-2.651.799-4.516.849-.29.007-.809 0-1.29.006-.244.004-.484.011-.69.026a3.47 3.47 0 0 0-.379.045c.424.32 1.003.566 1.661.756.712.205 1.502.343 2.257.446.757.103 1.47.17 2.039.238.282.033.53.066.726.105.097.019.185.04.259.062l.044.016c.08-.136.2-.288.422-.333.993-.202 2.184-.48 3.301-.901.994-.374 1.919-.858 2.594-1.493-.967.007-2.694.137-3.477.225l-.03.004-.028-.008-.407-.118-.069-.019-.028-.066c-.125-.295-.414-.46-.791-.615-.175-.072-.392-.15-.575-.228a2.304 2.304 0 0 1-.516-.292c-.319-.106-.552-.187-.788-.25Z"/><path fill="#2B170A" d="M12.423 72.394c-.656-.218-.965-.341-1.669-.397.436.233.921.432 1.166.853.059.559.098.342-.123.832.642.23 2.283.171 2.984.039l-.407-.117c-.303-.713-1.374-.737-1.95-1.21Z"/><path fill="#C1BC4A" d="M12.107 67.806c-.695-.419-2.26.117-3.275.171-.806.446-.936.342-1.504 1.07l-.028.128c2.28.297 6.984 2.063 9.22 1.32-.797-.91-2.026-1.36-3.12-1.977-.404-.188-.986-.42-1.293-.712Z"/><path fill="#150903" d="m19.837 71.735-.213-.025-.077.284c-2.482.913-4.81.432-7.124.4.576.473 1.648.498 1.951 1.21l.407.117c.89-.1 3.009-.255 3.848-.22.391-.082 1.142-.445 1.403-.83-.171-.34-.169-.458-.19-.824l-.005-.112Z"/><path fill="#380A06" d="M46.66 114.832c-.113-.335-.185-.368-.476-.579-.331.307-.522 2.341-1.191 2.967-.406.379-.82.663-1.262.993.344 1.19 3.651 4.355 4.474 5.283-2.29-.223-3.3-.963-5.157-1.403a10.02 10.02 0 0 0 1.982.972c1.023.37 2.227.582 3.301.856 1.172.299 2.89 1.11 4.04 1.181-4.332-1.786-5.522-2.728-8.097-6.77 1.183-1.035 1.51-1.866 2.038-3.299l.347-.201Zm8.37-.432c-2.36 1.309-4.313.51-6.594-.52.179.421.653.71 1.03.974.059.032 3.087.54 3.555.657 2.958-.974 4.725-.65 7.842-.973l.075-.258c-2.082.135-3.907.505-5.908.12Z"/><path fill="#240D0A" d="M32.245 64.3c-.208-.079-1.154-.44-1.382-.429-1.962.096-4.342.75-6.255 1.247-.4.104-.887.585-1.45.617-.397-.412.04-.439-.515-.84l-.783.018c.482.099.402.01.707.316.089.433.087.54.08.974.813.005 1.673-.745 2.279-.884 1.421-.327 3.13-.674 4.539-1.01 1.626-.386 1.547.186 2.78-.009Z"/><path fill="#BDA939" d="M8.832 67.977c-1.523-.035-3.358.114-4.852.44.312.139 1.021.5 1.28.577.474.027 1.702.199 2.04.18l.028-.127c.568-.728.698-.624 1.504-1.07Z"/><path fill="#150903" d="M36.376 118.004a14.288 14.288 0 0 1-1.273-.296c.757.725 1.493 1.504 2.442 1.96 1.585.762 3.349 1.745 5.026 2.218-2.336-1.591-3.762-1.371-6.195-3.882Z"/><path fill="#E3581E" d="M3.98 68.418c-.604.087-1.628.184-2.14.438l-.041.206c.622.507 2.221 1.47 3.057 1.475-.227-.09-1.58-.987-1.686-1.172l.344-.158c-.067-.124-.107-.137-.092-.233.734.194 1.097.112 1.837.02-.259-.077-.967-.438-1.28-.576Z"/><path fill="#240D0A" d="M38.706 77.383c-.074.029-.322.072-.413.09-1.931-.497-1.683-1.66-2.764-2.626-.106 1.068 1.45 2.575 2.462 2.88.085.026.652-.13.78-.168l-.065-.176Z"/><path fill="#380A06" d="M16.95 70.307c-1.096-.812-2.153-1.68-3.548-1.788 1.093.617 2.321 1.066 3.118 1.976.168.015.25-.081.43-.188Zm2.886 1.427.08-.14c-.256-.338-1.985-.953-2.44-1.038.275.946 1.432.562 2.07 1.437l.077-.283.213.024Z"/><path fill="#240D0A" d="M61.794 88.438c.457.426.853.833 1.285 1.28l.165-.027.096-.161c-.407-.957-.538-.892-1.546-1.092Z"/><path fill="#5F0A01" d="M70.102 100.754c.07.754.087 1.016.02 1.781l.306-.183c.068-.668.092-.853-.011-1.509l-.315-.089Z"/><path fill="#FAF9F1" d="M31.928 68.68v-1.113l-1.485 1.485-2.227.371-.743-.742.371-.742 4.827-1.114 1.485.742-.372.743-.742.37h-1.114Z"/><path fill="#171514" d="m26.542 68.492-.1-.028a.23.23 0 0 1-.07-.098c.307-.267.493-.619.756-.83 1.52-2.272 3.517-1.866 5.283-1.366.072.02.141.049.206.09.551.327 1.239 1.07 1.539 1.276.357.245-.06.552-.174 1.003-.175.694-.46.847-.634 1.04a4.194 4.194 0 0 1-1.944 1.217.59.59 0 0 1-.153.025c-.47.018-.748.018-.832-.004-.344-.086-.557-.118-.64-.096a.292.292 0 0 1-.214-.017l-1.189-.574a.447.447 0 0 1-.129-.096c-.466-.512-.78-1.07-.937-1.67a.146.146 0 0 0-.225-.08 1.113 1.113 0 0 1-.54.209l-.003-.001Zm7.106-.96a.27.27 0 0 1 .15.24c-.177.146-.269.299-.276.457a.057.057 0 0 0 .056.061c.007.003.016 0 .022-.003.23-.086.36-.272.382-.557l-.171-.262a.79.79 0 0 0-.504-.296c-.005-.002-.01.001-.012.006s.001.011.006.013c.136.074.252.19.349.345l-.002-.003Zm-.509.658.06-.474a.195.195 0 0 0-.165-.22l-.336-.04a.444.444 0 0 0-.494.38.433.433 0 0 0 .383.487l.336.04a.2.2 0 0 0 .219-.172l-.003-.001Zm-5.178.731c.05.231.157.395.317.49.015.005.029.002.036-.012.002-.007.005-.015 0-.024l-.317-.506c.03-.221-.037-.353-.202-.394a.062.062 0 0 0-.075.046c-.002.007-.004.012 0 .018.009.164.09.29.24.38l.002.002Z"/><path fill="#C1BC4A" d="m100.124 79.43-.301.248c.611.124 1.591.237 1.982.663l.082.588c.503.266 1.706-.008 2.102.267l.031.57c1.441 1.577 3.171 2.921 4.605 4.524l.342 1.645c1.165.524 2.861 1.607 3.36 2.843.15.372.271 1.49.582 1.641.505.245 2.131-.133 2.718-.237l-.187-.319c1.233-.017 2.678-.174 3.923-.279l.485.216c.656-.129 1.706-.517 2.3-.208 1.828.948 3.982.5 5.938.692.079.008.192.168.226.222 1.227-.361 3.3-.18 5.413-.773l2.231-.501c3.089-.09 11.96-1.871 14.924-2.938l.067-.015c.928-.046 2.575-.65 3.489-.974.468-.662.88-.823 1.538-1.303l.214-.068c.939-.27 1.84-.237 2.671-.703-1.131-.392-6.558-.507-7.944-.532-.595-.108-1.731-.124-2.36-.146-1.052-.037-2.867-.662-3.786-.614-4.573.237-9.088-.026-13.653.074-2.659-.177-5.062.256-8.188-.105-1.87-.663-5.212-.415-7.307-.378-2.136.072-8.15-1.21-10.306-1.893-.286-.225-.459-.312-.574-.652.115-.37.6-.636.941-.877-1.368.484-1.683.434-3.099.358-1.026-.861-1.133-.799-2.459-1.036Zm29.002 10.807c.355.48.263.337 1.003.487-1.533-.049-6.051.502-7.048-.135.809-.312 1.175-.315 2.027-.354.865-.04 3.536.15 4.018.002Zm19.401-4.081c-.991.201-2.218.286-3.243.382.622-.495.747-.218 1.464-.386-.445-.898-2.581.548-3.94-.252 1.255-.116 3.314-.208 4.45-.442.466.025.964.063 1.31.41l-.041.288Z"/><path fill="#AA9F52" d="M125.108 90.235c-.852.039-1.218.042-2.027.354.997.637 5.514.086 7.048.135-.74-.15-.649-.007-1.003-.487-.482.147-3.153-.042-4.018-.002Z"/><path fill="#BDA939" d="M147.258 85.459c-1.135.233-3.195.325-4.45.44 1.359.801 3.495-.645 3.94.253-.716.168-.842-.109-1.464.386 1.025-.096 2.253-.18 3.244-.382l.04-.287c-.345-.348-.843-.386-1.31-.41Z"/><path fill="#150903" d="M155.974 86.002c-1.428.1-2.952.168-4.362.402-1.282.212-3.106.85-4.33.991-.3-.01-.548.005-.83-.093.398-.065.792-.115 1.177-.234l-.023-.136-.244-.122c-.523.264-1.121.193-1.686.098l-.121-.02c-.768-.004-3.443.484-4.39.627-2.88.434-6.087.677-8.925 1.13-2.158.272-4.233.536-6.414.64-.318.015-.484.106-.699.316l.105.123-.124.51c.865-.04 3.537.15 4.019.003.354.48.262.337 1.003.487-1.534-.049-6.052.502-7.049-.135-.236.192-.403.323-.718.103-.8.269-2.175.737-3 .893l.485.216c.656-.13 1.706-.518 2.301-.21 1.827.95 3.981.502 5.938.694.078.007.192.167.226.221 1.226-.361 3.3-.18 5.413-.773l2.23-.501c3.089-.09 11.961-1.871 14.925-2.938l.067-.015c.927-.046 2.574-.65 3.489-.974.467-.661.879-.822 1.537-1.303Z"/><path fill="#150903" d="M150.88 88.294c-1.353 0-2.643.267-3.972.511-2.764.533-5.003 1.065-7.829 1.445-2.796.376-6.405.15-8.949.474-1.534-.049-6.052.502-7.049-.135-.237.191-.403.323-.718.103-.801.269-2.175.737-3 .893l.485.215c.656-.129 1.706-.517 2.301-.208 1.827.948 3.981.5 5.937.692.079.008.193.168.226.222 1.227-.361 3.301-.18 5.413-.773l2.231-.501c3.089-.09 11.961-1.871 14.924-2.938Z"/><path fill="#BDA939" d="m135.956 91.232-.13-.228a35.74 35.74 0 0 0-1.877-.123c-1.843-.064-9.72.797-10.984.105-.331.054-.211-.016-.43.256l-.07-.097.084-.064.083.234c2.736 1.168 8.135.267 11.093.418l2.231-.501Zm9.586-3.09c-2.231.188-5.003.773-7.336 1.041-2.856.33-6.32.527-9.08 1.054.354.48.263.337 1.003.487 2.544-.323 6.153-.098 8.95-.474 2.826-.38 5.065-.911 7.829-1.444.112-.182.125-.362.164-.573-.328-.229-1.082-.114-1.53-.09Zm1.74-.747c-.299-.009-.548.005-.83-.093.398-.065.792-.115 1.177-.234l-.023-.136-.243-.122c-.524.264-1.121.193-1.686.098l-.122-.02c-.768-.004-3.443.485-4.389.627-2.88.435-6.088.677-8.926 1.13-.246.103-.922.326-1.009.506.749.066 1.431-.063 2.125.036 4.293-.044 9.656-1.157 13.926-1.791Z"/><path fill="#BDA939" d="M150.948 88.279c.704-.388 2.791-.943 3.106-1.563-1.046-.85-7.13 1.133-8.512 1.426.449-.023 1.202-.138 1.531.09-.039.212-.052.392-.165.573 1.329-.244 2.619-.511 3.973-.511l.067-.015Z"/><path fill="#A98A46" d="M132.24 88.645c-2.158.273-4.233.536-6.414.64-.318.015-.484.106-.699.316l.105.123c1.617-.002 3.106.275 4.742-.052 1.078-.216 2.288-.35 3.382-.485-.694-.099-1.376.03-2.125-.036.087-.18.763-.403 1.009-.506Z"/><path fill="#C1BC4A" d="M142.809 85.9c-8.244-.096-16.459 1.4-24.672 2.002-.238.018-1.024.468-1.26.6-.297.46.233.945-.137 1.481-.658.954-1.612.381-1.299 1.88 1.232-.017 2.678-.173 3.922-.278.826-.156 2.2-.624 3-.893.315.22.482.089.719-.103.809-.312 1.174-.315 2.026-.354l.124-.511-.105-.123c.215-.21.381-.301.699-.316 2.181-.104 4.256-.368 6.414-.64 2.838-.453 6.045-.695 8.925-1.13.947-.142 3.622-.631 4.39-.628.775-.214 2.752-.251 3.203-.645l-.23-.086c-.991.202-2.219.286-3.244.382.622-.495.748-.218 1.465-.386-.446-.898-2.582.548-3.94-.252Z"/><path fill="#150903" d="M148.528 86.156c-.991.202-2.219.286-3.244.382-.766.204-1.708.228-2.497.365-2.23.388-4.442.537-6.677.792-1.946.222-3.9.638-5.868.875-1.874.226-3.988.096-5.725.728.202.135.371.28.61.303.215-.21.381-.301.699-.316 2.181-.104 4.256-.368 6.414-.64 2.838-.453 6.046-.695 8.925-1.13.947-.142 3.622-.631 4.39-.628.775-.214 2.752-.251 3.203-.645l-.23-.086Z"/><path fill="#150903" d="M124.517 89.299c-.411.09-1.109.266-1.504.304-.115.102-.233.195-.323.316-.087.227-.205.575-.327.773.315.22.482.088.718-.103.809-.312 1.175-.315 2.027-.354l.123-.511-.104-.123c-.239-.023-.408-.168-.61-.302Z"/><path fill="#150903" d="M123.013 89.602c-.883-.696-1.226-1.032-2.33-1.33l-.162.06c.432.439 1.445.952 2.169 1.586.091-.12.209-.213.323-.316Z"/><path fill="#C1BC4A" d="M115.621 83.53c-2.136.072-8.15-1.21-10.306-1.893.049 1.71 3.47 3.242 4.081 5.994 2.189 1.342 2.764 1.857 3.744 4.185.14.332 1.261.103 1.555-.205.163-1.706.582-.937 1.769-1.847-.063-.67-1.051-1.084-1.603-1.425.721-.029 2.091-.059 2.639-.538.286-.61-.034-1.25.271-1.806.131-.238.555-.144.467-.61-1.054-.905-1.967-.65-2.617-1.855Z"/><path fill="#150903" d="m100.125 79.43-.302.249c.611.123 1.591.236 1.983.662l.081.588c.503.266 1.706-.008 2.103.267l.031.57c1.44 1.577 3.17 2.921 4.604 4.524l.342 1.645c1.165.524 2.862 1.607 3.36 2.843.15.372.272 1.49.582 1.641.505.245 2.131-.133 2.718-.237l-.186-.319c-.313-1.499.641-.926 1.299-1.88.37-.536-.16-1.022.137-1.482.235-.131 1.022-.581 1.259-.599 8.214-.602 16.429-2.098 24.672-2.002 1.255-.116 3.315-.208 4.45-.442l-.055-.261c-6.364.385-12.587.321-18.953 1.216-1.652.233-8.651 1.398-9.876.773l-.064-.283c.158-.543.6-1.014.961-1.462-.984-.431-2.487-1.31-3.468-1.85 2.699.433 4.453.427 7.125.317-1.87-.663-5.212-.415-7.306-.378.649 1.204 1.562.95 2.616 1.855.088.466-.335.372-.466.61-.306.556.014 1.196-.272 1.806-.548.48-1.918.51-2.639.538.552.34 1.54.754 1.603 1.425-1.186.91-1.605.141-1.769 1.847-.293.308-1.415.537-1.555.205-.98-2.328-1.555-2.843-3.744-4.184-.611-2.753-4.031-4.284-4.081-5.995-.285-.225-.459-.311-.573-.651.115-.372.599-.637.94-.878-1.368.484-1.683.434-3.098.359-1.026-.862-1.134-.8-2.459-1.037Z"/><path fill="#A98A46" d="M150.915 84.699c-.594-.108-1.73-.124-2.359-.146-1.052-.037-2.868-.662-3.786-.614-4.573.237-9.088-.026-13.653.074 2.358.668 15.174-.164 16.03.887l.056.297.056.261c.466.025.964.063 1.31.41l-.041.288.23.086c-.451.394-2.427.43-3.203.645l.122.021c.565.095 1.163.166 1.686-.098l.243.121.023.137c-.384.12-.778.169-1.177.234.282.098.531.084.83.093 1.225-.142 3.048-.779 4.33-.991 1.41-.234 2.934-.301 4.362-.402l.214-.068c.939-.27 1.841-.236 2.672-.703-1.131-.392-6.558-.507-7.945-.532Z"/><path fill="#150903" d="M158.859 85.23c-1.131-.39-6.558-.506-7.944-.531.061.515-.027.432.27.764 1.58.41 3.471-.705 5.003.471.939-.27 1.84-.237 2.671-.703Z"/><path fill="#2B170A" d="m61.813 76.347-.413-.08-.154.123c.13.385.62 1.54.35 1.9-1.385 1.84-3.627 3.853-5.494 5.17-.34.24-1.758-.224-2.12-.35.65.817 1.277.819 2.289.843.378.771 1.586 2.67 2.365 2.957.357-.06.232.016.46-.292l.016-.128c-1.08-.374-2.269-1.58-2.256-2.772.012-1.07 1.86-1.72 2.568-2.532 1.01-1.157 2.745-2.445 2.902-4.093.016-.413-.232-.517-.513-.746ZM75.921 66.12c-1.019-.037-3.788.759-4.615 1.395-.72.554-1.443 1.322-2.229 1.87-.659.459-2.38.852-2.48 1.602l.21.268.281-.055c.17-.202.78-.722.995-.78 1.301-.363 6.696-5.224 7.596-3.552.047-.352.09-.425.242-.749Z"/><path fill="#380A06" d="m70.428 102.352-.305.184c-.773 5.1-.174 6.224-4.868 9.903-1.268.994-2.75 1.466-4.317 1.841l-.075.259c3.41-.485 6.638-3.194 8.503-6.126.545-.857 1.037-4.868 1.062-6.061Z"/><path fill="#150903" d="M70.417 100.843c-.16-2.536-3.307-9.489-5.5-9.949l-.001.253c2.1 2.422 4.028 4.74 4.802 7.934.127.522.23 1.182.385 1.673l.314.089Z"/><path fill="#240D0A" d="M94.801 118.031c-1.904.92-3.598 1.866-5.436 2.917.575-.089.604-.185 1.075-.003l.172.244.082-.097c1.006-1.179 1.91-1.603 3.352-2.094.151-.13.608-.769.755-.967ZM77.097 65.454c-.419-.012-.874.384-1.175.665-.153.324-.196.397-.243.75-.394.465-.824 1.069-1.198 1.564 2.13-1.197 1.193-1.889 2.967-2.321l-.35-.658Z"/><path fill="#150903" d="m95.473 78.244.025-.045c.347-.643.475-.736.536-1.47l-.14-.125-.067.182-.022.127c-.154.852-.64 1.326-.59 1.821.302.408 1.69.67 2.188.764l.763-.2c-1.219-.248-1.678-.433-2.693-1.054Z"/><path fill="#41300D" d="M119.363 91.584c-1.244.105-2.689.261-3.921.279l.186.319c1.394-.046 2.832-.222 4.22-.382l-.485-.216Z"/><path fill="#2B170A" d="M82.582 123.691c-1.055-.113-2.402.683-3.412 1.073.596.025.779.029 1.362-.073.168-.363.578-.365.93-.446l.308-.052.409-.254.403-.248Z"/><path fill="#5E591B" d="M100.125 79.43c-.709-.154-1.242-.13-1.959-.13l-.763.199c.56.04 1.965.073 2.42.18l.302-.249Z"/><path fill="#150903" d="M79.938 67.91c-.27.46-.777.766-.854 1.132.953-.047.822-.58 1.645-.129.306.563.27.66.762.814l.051-.153c-.677-1.277-.62-.819-1.54-1.608l-.064-.056Zm28.267 31.595c-.312.051-1.218.597-1.559.778.389.728.648 1.428.949 2.194l.029.14.108-.001c-.014-.656-.25-1.459-.412-2.11l.885-1Z"/><path fill="#41300D" d="m95.931 79.794-.287.108c-.42.627-2.1 2.694-2.227 3.004.858-.089 2.25-2.342 2.514-3.112Z"/><path fill="#150903" d="M109.436 97.085c-.294.344-.25.615-.257 1.071-.244.557-.475.624-.75 1.18.33-.005.329-.022.632-.206a1.37 1.37 0 0 0 .63-.879c.109-.485-.003-.77-.255-1.166Z"/><path fill="#2B170A" d="M109.435 97.085c.034-.524.331-.34.439-.748-.077-.014-1.726.475-2.083.548l-.08.107c1.188.194 1.303-.075 1.468 1.164.006-.456-.037-.727.256-1.07Z"/><path fill="#150903" d="M82.126 72.153c.195-.325.62-.884.356-1.22-.355.18-.496.72-.647 1.11l.291.11Z"/><path fill="#5E591B" d="M81.835 72.043c-.351.507-.61 1.003-.664 1.634l.955-1.525-.29-.109Z"/><path fill="#C0954C" stroke="#000" stroke-width=".3" d="M93.755 119.26c-1.233.44-2.046.873-2.946 1.928l-.065.078a155.642 155.642 0 0 1-1.698 4.579 29.04 29.04 0 0 1-.25.618 2.905 2.905 0 0 1-.16.339l-.027.042-.046.017-.156.058c-.038.219-.109.659-.19 1.067-.048.236-.1.47-.156.657-.02.069-.042.133-.064.19.31.046.522.104.694.237.105.081.19.183.272.309.081.123.168.279.276.469l.01.015.004.018c.084.294.15.482.258.633.078.109.184.206.348.307.016-.159.023-.285.03-.421.012-.195.033-.399.112-.717l.005-.02.01-.018.05-.081a1.07 1.07 0 0 1 .471-.36c.114-.049.241-.088.367-.125-.05-.045-.105-.092-.155-.14a2.379 2.379 0 0 1-.185-.197.727.727 0 0 1-.069-.097.314.314 0 0 1-.043-.121c-.026-.233.003-.536.068-.882.066-.348.171-.75.303-1.186.264-.871.64-1.886 1.041-2.887a78.578 78.578 0 0 1 1.89-4.309Z"/><path fill="#240D0A" d="m88.51 126.721-.237.089c-.067.361-.305 1.981-.516 2.141.883.107.914.202 1.351.97-.207-1.261-.7-1.712-.599-3.2Z"/><path fill="#A98A46" stroke="#000" stroke-width=".3" d="M95.645 128.051a2.112 2.112 0 0 0-.146.028c-.122.027-.282.067-.47.118-.377.101-.86.243-1.357.391-.98.291-2.028.61-2.418.699v.001c-.232.073-.423.116-.6.192a.744.744 0 0 0-.368.299 3.334 3.334 0 0 0-.098.639c-.009.15-.013.305-.039.514.125.015.28.034.43.055.215.031.446.07.574.119.516.173 1.138.388 1.768.506.635.119 1.256.135 1.77-.072a.77.77 0 0 0 .349-.25.594.594 0 0 0 .11-.328c.013-.254-.096-.557-.268-.85l-.012-.02-.004-.022c-.038-.165.03-.325.108-.461.08-.137.197-.29.306-.442.216-.3.424-.632.46-1.029l-.085-.089-.01.002Z"/><path fill="#B09362" stroke="#000" stroke-width=".3" d="m81.85 124.32-.026.016-.028.004-.309.054v-.001c-.089.02-.184.036-.267.052-.09.017-.17.035-.244.06a.477.477 0 0 0-.287.215c.134.849.273 1.64.47 2.33.202.706.461 1.297.824 1.733.36.433.826.72 1.457.818.593.091 1.34.014 2.29-.28a.59.59 0 0 0-.121-.086c-.093-.048-.196-.076-.385-.136l-.069-.021-.026-.067-.15-.388-.034-.09.069-.068c.077-.079.133-.13.167-.163.039-.037.04-.043.04-.041-.003.004 0 .003.003-.043l.008-.16a.61.61 0 0 0-.224-.202c-.096-.049-.203-.075-.388-.133l-.097-.031-.004-.052c-.798-.105-1.32-.719-1.681-1.421-.345-.668-.564-1.457-.744-2.05l-.245.151Z"/><path fill="#A98A46" d="m82.18 123.939-.409.254-.308.052c-.046.728.373 2.633.668 3.294 1.418 1.565 1.607.429 3.139 1.417l-.15-.387c.302-.306.237-.156.264-.557-.205-.305-.375-.324-.718-.433l-.006-.076c-1.583-.092-2.093-2.328-2.48-3.564Z"/><path fill="#917753" d="m81.77 124.192-.308.053c-.046.728.373 2.633.668 3.294.265-.092.293-.088.449-.306-.133-.968-.499-2.102-.809-3.041Z"/><path fill="#C0954C" d="m84.665 127.579-.355.088c.262.437.446.345.809.903.302-.306.237-.156.264-.557-.205-.306-.375-.325-.718-.434Z"/><path fill="#A98A46" stroke="#000" stroke-width=".3" d="M88.088 127.005c-.883.2-2.002.46-2.931.59a.94.94 0 0 1 .35.334l.03.042-.004.051c-.006.1-.007.156-.01.211a.393.393 0 0 1-.034.159.444.444 0 0 1-.1.125l-.093.09.087.227c.138.043.26.08.367.136a.95.95 0 0 1 .295.249c.064-.019.144-.042.231-.065.154-.041.341-.087.53-.132.35-.085.696-.165.868-.206a.406.406 0 0 0 .026-.05 1.76 1.76 0 0 0 .074-.209c.05-.174.1-.397.147-.63.069-.34.128-.684.167-.922Z"/></g><defs><clipPath id="a"><path fill="#fff" d="M157.059 0 0 3.318l2.766 130.967 157.06-3.317z"/></clipPath></defs></svg>